<svg id="Layer_1" data-name="Layer 1" xmlns="http://www.w3.org/2000/svg" width="512" height="512" viewBox="0 0 512 512"><defs><style>.cls-1{fill:#8a2727;}</style></defs><path class="cls-1" d="M392,512H120A120.1,120.1,0,0,1,0,392V120A120.1,120.1,0,0,1,120,0H392A120.1,120.1,0,0,1,512,120V392A120.1,120.1,0,0,1,392,512ZM120,40a80.11,80.11,0,0,0-80,80V392a80.11,80.11,0,0,0,80,80H392a80.11,80.11,0,0,0,80-80V120a80.11,80.11,0,0,0-80-80ZM397,90a25,25,0,1,0,25,25A25,25,0,0,0,397,90ZM256,386A130.12,130.12,0,0,1,126,256c7.1-172.5,252.9-172.4,260,0A130.12,130.12,0,0,1,256,386Zm0-220a90.14,90.14,0,0,0-90,90c4.9,119.4,175.1,119.4,180,0A90.14,90.14,0,0,0,256,166Z"/></svg>