<?xml version="1.0" encoding="utf-8"?>
<!-- Generator: Adobe Illustrator 25.2.3, SVG Export Plug-In . SVG Version: 6.00 Build 0)  -->
<svg version="1.1" id="Layer_1" xmlns="http://www.w3.org/2000/svg" xmlns:xlink="http://www.w3.org/1999/xlink" x="0px" y="0px"
	 viewBox="0 0 512 512" style="enable-background:new 0 0 512 512;" xml:space="preserve">
<style type="text/css">
	.st0{fill:#EFEFEF;}
</style>
<path class="st0" d="M392,512H120C53.8,512,0,458.2,0,392V120C0,53.8,53.8,0,120,0h272c66.2,0,120,53.8,120,120v272
	C512,458.2,458.2,512,392,512z M120,40c-44.1,0-80,35.9-80,80v272c0,44.1,35.9,80,80,80h272c44.1,0,80-35.9,80-80V120
	c0-44.1-35.9-80-80-80H120z M397,90c-13.8,0-25,11.2-25,25s11.2,25,25,25s25-11.2,25-25S410.8,90,397,90z M256,386
	c-71.7,0-130-58.3-130-130c7.1-172.5,252.9-172.4,260,0C386,327.7,327.7,386,256,386z M256,166c-49.6,0-90,40.4-90,90
	c4.9,119.4,175.1,119.4,180,0C346,206.4,305.6,166,256,166z"/>
</svg>
