<svg id="Capa_1" data-name="Capa 1" xmlns="http://www.w3.org/2000/svg" width="512" height="341.33" viewBox="0 0 512 341.33"><defs><style>.cls-1{fill:#f9f9f9;}</style></defs><path class="cls-1" d="M485.74,85.33H26.26A26.33,26.33,0,0,0,0,111.59V400.41a26.33,26.33,0,0,0,26.26,26.26H485.74A26.34,26.34,0,0,0,512,400.41V111.59A26.34,26.34,0,0,0,485.74,85.33ZM475.89,105,271.1,258.63c-3.68,2.8-9.33,4.55-15.1,4.52s-11.42-1.72-15.1-4.52L36.11,105ZM366.5,268.76,478.09,406.61c.11.14.25.24.37.37H33.54c.12-.14.26-.23.37-.37L145.5,268.76a9.85,9.85,0,0,0-15.31-12.39L19.69,392.87V117.33l209.4,157.05a47,47,0,0,0,53.82,0l209.39-157V392.87L381.81,256.37a9.85,9.85,0,0,0-15.31,12.39Z" transform="translate(0 -85.33)"/></svg>