<svg id="Layer_1" data-name="Layer 1" xmlns="http://www.w3.org/2000/svg" width="482.57" height="647.76" viewBox="0 0 482.57 647.76"><defs><style>.cls-1{fill:#8e2306;}.cls-2{fill:#6b1805;}</style></defs><g id="Layer_1-2" data-name="Layer 1"><path class="cls-1" d="M454.3,279c4.1,4.4,11.5,3.6,15.8-.1s5.2-10.4,5.5-15.9a18.17,18.17,0,0,0-.9-8,7.82,7.82,0,0,0-5.4-4.6,1.21,1.21,0,0,0-1.3-.8h.1a21.39,21.39,0,0,0-9,1.9,16.29,16.29,0,0,0-7.1,8,18.14,18.14,0,0,0-1.4,10.5A16.1,16.1,0,0,0,454.3,279Zm-.4-16.4a14.23,14.23,0,0,1,5.8-8,15.18,15.18,0,0,1,7.2-1.9,1.74,1.74,0,0,0,1.1.6c4.4.4,4.7,5.2,4.6,8.7-.1,4.4-.5,9.4-3.1,13.1s-8.4,5.4-12.1,2.7c-1.9-1.4-2.9-3.8-3.5-6a16,16,0,0,1,0-9.2Z" transform="translate(-237.98 -112.88)"/><path class="cls-1" d="M462.7,270.7a5.48,5.48,0,0,0,4.8-2.9,6.31,6.31,0,0,0,.4-5.2,3.87,3.87,0,0,0-3.4-2h-.2l-.2-.1a1.38,1.38,0,0,0-1.1.1h-.1c-.3.2-.5.4-.8.6a5.73,5.73,0,0,0-1.1,1.1l-.3.3a7.26,7.26,0,0,0-1.7,3.1,4.3,4.3,0,0,0,1,3.6A3.19,3.19,0,0,0,462.7,270.7Z" transform="translate(-237.98 -112.88)"/><path class="cls-1" d="M605.5,667.6Z" transform="translate(-237.98 -112.88)"/><path class="cls-1" d="M650.3,343.4h0v0Z" transform="translate(-237.98 -112.88)"/><path class="cls-1" d="M720.2,425.5a45.68,45.68,0,0,0-6.8-4.7,40.39,40.39,0,0,1-6.4-5.2,143.33,143.33,0,0,0-13-10.3,105,105,0,0,1-11.9-10.2A66.08,66.08,0,0,1,672,382.2c-2.9-4.7-5.4-9.6-7.8-14.5a114.91,114.91,0,0,0-3.7-12.7,23.94,23.94,0,0,0-1.3-2.8,1.42,1.42,0,0,0,.2-.6,34.76,34.76,0,0,0-1.1-8.5c-.7-3.1-1.3-6.1-1.9-9.2-1.3-6.7-2.9-13.4-4.1-20.2-2.3-13.5-3.7-27.2-5.3-40.9a163,163,0,0,0-3.1-19.6,67.2,67.2,0,0,0-6.6-17.3c-2.9-5.2-6-10.4-9.4-15.4a66.84,66.84,0,0,0-11.5-13.4c-2.7-2.4-5.6-4.5-8.4-6.7-2-1.6-3.8-3.3-5.7-5.1a47.88,47.88,0,0,0-5.5-4.6,13.59,13.59,0,0,0-3.7-2.1c-1.4-.9-2.3-2.7-3.2-3.8a44.76,44.76,0,0,1-5.1-6.4c-2.6-4.2-4.9-8.7-7.6-12.9a61.76,61.76,0,0,0-9.1-11.3c-4-3.7-8.3-7-12.1-10.9-2.1-2.1-3.6-4.5-5.5-6.7a16.68,16.68,0,0,0-2.8-2.5,6.89,6.89,0,0,1-2.4-2.4h0c-1-1.7-3.4-.2-2.6,1.5l.1.1a9.08,9.08,0,0,1,.7,4.3c0,1.7-.2,3.4-.3,5.2-.4,4.3-.7,8.7-.9,13.1-.5,8.7-.9,17.4-.9,26.1a1.15,1.15,0,0,0-.5,1.2c.2,2.4-.7,4.8-1,7.2l-1.2,8.7c-.9,4.9-1.5,9.9-1.9,14.8a40,40,0,0,1-8.4-.9,59.87,59.87,0,0,0-9.5-.7c-4.7.1-9.6-.4-14.2.9-.2-6-.3-12.1-.3-18.1,0-3.8-.1-7.6,0-11.4s.4-7.5.3-11.2c0-3-.1-6.1-.3-9.1a24.64,24.64,0,0,0-1.2-7.6c.1-.1.1-.2.2-.3a1.42,1.42,0,0,0,.2-.6.64.64,0,0,0,0-.6l-.1-.4c0-.1-.1-.1-.2-.2.1-.4.3-.8.4-1.3a44.17,44.17,0,0,0,.8-16.2c-.5-3.4-1.4-7.2-3.3-10.1-.9-1.3-2.2-2.6-3.9-2.6a4.53,4.53,0,0,0-3.6,2.2c-2.2,2.9-3.2,6.6-4.3,10a22.63,22.63,0,0,1-1.7,4.3c-1.4,2.5-2.9,4.9-4.5,7.3s-3.3,4.6-4.7,7.1c-1.6,2.6-3,5.3-4.4,8-2.9,5.3-6.4,10.2-9.8,15.3-6.7,10-13.2,20.3-21.5,29.1-7.9,8.3-17.2,15.1-26.4,22a69.6,69.6,0,0,1-10.2,6.8c-1.5.7-3.3,1.5-5,1.3-1.3-.2-1.8-1.3-2.2-2.6-1.2-3.4-1.5-7-2.1-10.5-1.2-6.1-2.6-12.2-3.7-18.3-1.1-6.3-1.9-12.7-2.8-19.1-.9-6.2-2.7-12.2-3.2-18.5-.2-3.1-.3-6.2-.5-9.4s-.8-6.3-1-9.5c-.5-6.2-.8-12.5-1.9-18.7-.5-2.6-1.1-5.3-1.8-7.9a27.46,27.46,0,0,0-1.4-4.9,1.28,1.28,0,0,0,.2-1.8c0-.1-.1-.1-.2-.2h0c-1.7-1.5-3.8-2.8-6.2-2.6a7.6,7.6,0,0,0-5.1,3.4c-3.4,4.5-4.7,10.5-6,15.8-1.3,5.5-2.1,11.1-3.5,16.6-1.1,4.7-2.6,9.3-3.9,13.9-1.7,5.8-3.3,11.7-5,17.5-3.3,11.4-6.7,22.8-11,33.9a298.54,298.54,0,0,1-14.2,31c-10.5,20.2-22.8,39.5-34.4,59.2-2.4,4.1-4.7,8.1-6.7,12.4s-3.9,9-5.5,13.5a141,141,0,0,0-7.2,28.6c-.2,1.3-.4,2.7-.5,4a1.4,1.4,0,0,0-1.2,1.4.6.6,0,0,0,.1.4H270a5,5,0,0,1,.2,2.7,20.14,20.14,0,0,1-1,3.5,54,54,0,0,1-4.5,9c-3.8,6.3-8.2,12.3-12.4,18.4-1.7,2.5-3.3,5-4.8,7.6a111.69,111.69,0,0,0-6.8,12.2c-1.6,3.5-2.9,7.4-2.7,11.3a17.39,17.39,0,0,0,5.1,11.1,50.83,50.83,0,0,0,8.1,6.6c2.8,2,5.8,3.9,8.8,5.7a25.29,25.29,0,0,0,2.2,1.3.9.9,0,0,0,.1.5h0c.7,2.1.4,4.5.3,6.7a47.06,47.06,0,0,0-.3,7.5c.3,6.1.8,12.3,1.1,18.4.6,12.3,1.2,24.6,3.3,36.7,3.9,22.9,13,44.4,22.2,65.6,5.2,11.9,13.3,22.2,20,33.2a1.34,1.34,0,0,0,.7.6.78.78,0,0,0,.4.4h0c1.8,1.5,2.7,3.7,3.5,5.9a34,34,0,0,0,3.8,6.7,74.27,74.27,0,0,1,4.9,7.5,67.09,67.09,0,0,0,4.7,7.1c3.5,4.7,6.8,9.6,10.2,14.4s7.3,9.5,11,14.2c7.2,9.2,14.3,18.5,23.4,26,.3.2.6.5.9.7-2,.2-3.9.6-4.6.7-3.2.6-6.4,1.4-9.5,2.3a38.72,38.72,0,0,0-10.8,4.3,21.66,21.66,0,0,0-10.1,13.2,19.88,19.88,0,0,0,3.5,16c3.7,5,9,8.2,14.6,10.6a73.6,73.6,0,0,0,18.4,4.9c16.3,2.4,33,1.8,49.5,1.1a241.14,241.14,0,0,1,25.5.5c8.5.5,17,1.2,25.5,1s16.7-.3,25.1-.2,16.7.2,25.1-.3a226.41,226.41,0,0,0,23.2-3c7.7-1.3,15.1-2.7,22.6-4.5,14.9-3.6,29.7-8.4,43.3-15.5,4.8-2.5,9.4-6,10.3-11.7,1.1-6.3-1.4-12.6-5.6-17.3-9.6-10.7-24.9-9.1-37.9-9.9a49.27,49.27,0,0,1-6.6-.7c7.8-7.9,16.1-15.2,23.6-23.2.9-1,1.9-2,2.9-3,5,.4,9.8-.5,14.7-1.3,5.3-.9,10.8-.8,16.1-2.1a.37.37,0,0,0,.3-.1h.1c5.1-1.3,10-3.3,15.2-4.3,4.6-.8,10-1.2,14-3.8,1.6-1.1,3.1-2.4,4.8-3.4a14,14,0,0,1,1.6-1,.91.91,0,0,0,.7-.3,2.33,2.33,0,0,1,2,0,1.61,1.61,0,0,0,2.1-.6,1.85,1.85,0,0,0,.2-.7c.7-5.8.2-11.5.7-17.3s.8-11.5,1-17.3c.3-11.6,0-23.3.8-34.9.5-6.4,1.1-12.9,1.6-19.3a1.22,1.22,0,0,0-.5-1.2c.1-.3.2-.6.3-1,1-2.9,2.3-5.9,3.4-8.8,2.5-6.3,3.8-13,5.4-19.6a106.45,106.45,0,0,0,2.6-23.2v-4.8c1.7-5.1,4.3-9.8,6.7-14.7,2.5-5.2,4.7-10.7,6.7-16.1s4.1-10.9,6.5-16.2,4.8-10.3,6.9-15.5a66.06,66.06,0,0,0,3-8.5,39.09,39.09,0,0,1,3-8.3C720.7,426.7,720.6,426,720.2,425.5Zm-42-30A98.33,98.33,0,0,0,690,406c4.4,3.4,9.1,6.5,13.2,10.2a69.12,69.12,0,0,0,7.1,6.1c2.3,1.6,4.8,2.9,7,4.6a27.18,27.18,0,0,0-1.1,2.5,194.14,194.14,0,0,0-21.5-13.6c-3.7-2-7.3-3.7-10.4-6.6a51.9,51.9,0,0,1-7-8.5c-2.1-3.1-4.1-6.3-6.3-9.4-.5-1.7-1-3.3-1.5-5s-1-3.5-1.5-5.2a69.51,69.51,0,0,0,10.2,14.4Zm36,40.2c-3.3-5.1-8.3-8.5-13.9-10.8-3.2-1.4-6.7-2.2-9.9-3.6a34.18,34.18,0,0,1-9.2-6.3,39,39,0,0,1-6.7-7.9c-.3-1.8-.6-3.7-.9-5.5s-.8-3.8-1.3-5.7c3,4.6,5.9,9.3,9.8,13.3a35.74,35.74,0,0,0,9.3,6.6c4,2.1,8,4.4,11.8,6.8,4.2,2.6,8.3,5.4,12.4,8.4-.5,1.5-.9,3.1-1.4,4.7Zm-5.9,14.9c-5.6-9.3-16.6-12.9-25.5-18.6a36.39,36.39,0,0,1-6.1-4.9c-.3-2.4-.5-4.8-.8-7.2,3.1,3.8,6.5,7.4,11,9.7,2.7,1.4,5.7,2.2,8.5,3.5a35.48,35.48,0,0,1,7.6,4.3,19.65,19.65,0,0,1,6.5,8.3.75.75,0,0,0,.7.5,41.73,41.73,0,0,1-1.9,4.4Zm-1.3,3.1c-5.1-3.8-10.5-7.3-15.6-11.2-3.8-3-8.3-6.8-13.4-7.1-.2-1.1-.4-2.2-.5-3.3-.1-.9-.2-1.7-.3-2.6,7.6,6.8,17.9,9.5,25.5,16.4a24,24,0,0,1,5,6.4A9.14,9.14,0,0,0,707,453.7Zm-4.9,11.2c-.1,0-.1,0-.2-.1-.4,0-1.2-.8-1.5-1.1a22.84,22.84,0,0,1-2.2-2.2c-1.5-1.5-3-3.1-4.6-4.6a40.29,40.29,0,0,0-5.8-4.1,27.77,27.77,0,0,0-6.4-3.3c-.5-1.8-1-3.6-1.4-5.4,3.7,1.4,6.5,5.2,9.6,7.5,4.7,3.4,9.7,6.3,13.6,10.5h.1A13.9,13.9,0,0,0,702.1,464.9Zm-1.6,4c-2.6-2.5-5-5.1-7.8-7.4-2.5-2.1-5.9-4.7-9.3-4.8-.5-1.8-1-3.6-1.6-5.5a26.78,26.78,0,0,1,5.7,3.2,38.72,38.72,0,0,1,5.7,4.3c1.7,1.6,3.2,3.3,4.9,4.9.9.9,2.1,2.3,3.5,2.6C701.2,467.1,700.8,468,700.5,468.9Zm-1.8,4.8-.5-.4-3-3c-2.2-2.1-4.4-4-6.8-5.9a14.48,14.48,0,0,0-3.4-2l-.1-.2-1.2-4c3.1.4,6.1,2.9,8.4,4.7,2.7,2.3,5.2,4.9,7.8,7.4-.4,1.2-.8,2.3-1.2,3.4Zm-2.3,6a10.39,10.39,0,0,0-1.7-2.4,49.77,49.77,0,0,0-4.9-5.4,7.5,7.5,0,0,0-2.8-1.8c-.4-1.9-.9-3.9-1.4-5.7a16.55,16.55,0,0,1,3,2.2c1.3,1,2.6,2.1,3.8,3.2s2.5,2.3,3.7,3.5l1.5,1.5.4.5.1.1c-.6,1.3-1.1,2.8-1.7,4.3Zm-1.9,4.6a21.69,21.69,0,0,1-1.5-3.5,9.64,9.64,0,0,0-2.9-4.2,3.61,3.61,0,0,0-2-.6c-.2-1.4-.4-2.7-.7-4a8.65,8.65,0,0,1,1,.7,17.24,17.24,0,0,1,2.7,2.7,46.24,46.24,0,0,1,3.4,4.1,3.51,3.51,0,0,1,.5.8.76.76,0,0,0-.1,1,.52.52,0,0,0,.4.2h.3c-.3.9-.7,1.8-1.1,2.8Zm-2.2,4.9c-.2.5-.5,1-.7,1.6a13.07,13.07,0,0,1-1.2-2.7,10.62,10.62,0,0,0-1.8-3.3,45.82,45.82,0,0,0-.3-7.4h.3l.2.1h.1c.2.1.3.2.5.3l.1.1.2.2c.1.1.2.3.4.4.2.3.4.5.6.8a34.89,34.89,0,0,1,2,4.4,15.05,15.05,0,0,0,1.1,2.2.1.1,0,0,1,.1.1,31.78,31.78,0,0,0-1.6,3.2Zm-99-297.4c.8.5,1.6,1,2.4,1.6,1.5,1.2,3,2.5,4.4,3.8,1.6,1.5,3.1,3,4.8,4.4,2.3,1.9,4.7,3.7,7,5.6,9.2,7.5,15.4,17.5,21.3,27.7a65.55,65.55,0,0,1,7.1,16.3,124.49,124.49,0,0,1,3.4,19.2c1.5,13.2,2.9,26.3,4.9,39.4,1.1,7.4,2.7,14.8,4.3,22.2.7,3.3,1.3,6.7,2,10,.4,1.7.8,3.4,1.1,5.1a35,35,0,0,1-3.1-5.3.1.1,0,0,0-.1-.1,1.46,1.46,0,0,0-1-1.9h-.1a38.89,38.89,0,0,1-1.3-6.8c-.5-3.4-.7-7-1.4-10.5-.8-4.1-2-8.2-3.1-12.3s-2.1-8.5-2.8-12.8c-2.4-15.1-5.5-30-10.8-44.4s-12.4-27.8-22.2-39.5a52.37,52.37,0,0,0-8.3-8c-3-2.3-6.3-4.4-9.3-6.7a47.2,47.2,0,0,1-8.9-8.4,74.91,74.91,0,0,1-5.9-9.8,66.46,66.46,0,0,0-5.6-10.1,62.92,62.92,0,0,0-7.4-8.1c-2.7-2.6-5.5-5.1-7.9-7.9s-4.9-6.1-7.6-9a33.41,33.41,0,0,0-3.3-3.2v-.5a40.28,40.28,0,0,0,.3-4.9,6.47,6.47,0,0,1,.9.8c1.8,1.8,3.1,4,4.8,5.9,3.7,4.2,8.2,7.7,12.4,11.4a54.36,54.36,0,0,1,9.8,11.6c2.8,4.3,5.1,8.9,7.8,13.2a50.77,50.77,0,0,0,5.8,7.2m59,152a46.37,46.37,0,0,1-1.7-6.4c-.7-3.5-1.2-7.1-2-10.6-2-8.6-5.1-17-8-25.3-4.3-12.3-6.8-25.1-10.3-37.6-3.5-12.3-8-24.7-15.9-34.8a53.08,53.08,0,0,0-6.5-6.9,90.08,90.08,0,0,0-7.9-5.9c-6.3-4.4-12.9-9.6-16.6-16.6-2-3.6-3.3-7.6-4.9-11.4a51.67,51.67,0,0,0-6.5-10.8c-5-6.7-10.9-12.8-16.6-18.8-1.4-1.4-2.7-2.9-4-4.3.1-1.8.3-3.6.4-5.4,5,4.7,8.8,10.6,13.8,15.4,2.7,2.6,5.5,5.1,8,7.8a39.89,39.89,0,0,1,6.5,9.3c3.4,6.8,6.7,13.8,12.3,19.1s12.8,8.9,18.5,14.2,10.1,11.9,14,18.4A141.44,141.44,0,0,1,629.6,249a209.39,209.39,0,0,1,11.7,44.1c.7,4.2,1.3,8.3,2.2,12.5s2.2,8.5,3.2,12.7a81.82,81.82,0,0,1,2,11,67.19,67.19,0,0,0,1.6,10A15.43,15.43,0,0,0,646.7,339Zm-8.2.1c-1.3-.1-2.5-.3-3.8-.5a29.88,29.88,0,0,1-4.6-6,81,81,0,0,1-6.1-13.4c-4.1-10.6-8.3-21.2-13-31.6a249.47,249.47,0,0,0-19.5-36.4c-3.8-5.8-8.2-11.1-12.3-16.7-4.3-5.8-8.1-11.8-12-17.8-4.3-6.6-9.3-12.8-13.4-19.5a97.65,97.65,0,0,1-4.7-9.1c-1.2-2.6-2.6-5.3-4.9-7,0-3.4.1-6.9.2-10.3a55.83,55.83,0,0,1,3.2,5.2,61.59,61.59,0,0,0,5.3,8c2.2,2.9,4.5,5.7,6.5,8.6a58.13,58.13,0,0,1,4.9,8.8,74.9,74.9,0,0,0,4.6,8.9,61.84,61.84,0,0,0,6.6,7.8c2.4,2.6,4.9,5.3,7.5,7.8,2.2,2.1,4.7,4,6.9,6.1,17,16.5,20.7,41.4,29.1,62.5,2.9,7.2,6.3,14.3,9.5,21.4,3.5,7.8,7.1,15.6,10.8,23.3Zm-277.2,148-.3-.8c-.6-1.6-1.2-3.3-1.9-4.9-1.4-3.4-3-6.6-4.6-9.9-3-6.1-6-12.3-5.3-19.3V452c.8-1,1.5-1.9,2.2-2.9l.2-.4c.9,3.5,1.4,7.1,2.6,10.6.8,2.5,1.6,5.1,2.5,7.6s2,4.9,2.9,7.4c1.7,4.7,3.4,9.5,4.9,14.3a51.64,51.64,0,0,0,2.8,7.8c-2.1-3.1-4-6.2-6-9.3Zm-3.7-5.2c-1.8-2.4-3.5-4.8-5.1-7.4-2.6-4-5.1-8.4-6-13.1a9.23,9.23,0,0,1,.4-5.9l.6-1.2c0,6.8,3.2,12.8,6.1,18.9C355,476.1,356.4,479,357.6,481.9Zm46.8-8.6c-3.5-3.8-6.9-7.9-8.9-12.6a84.5,84.5,0,0,1-2.6-8.1,61.06,61.06,0,0,1-1.9-8.7c-.9-5.8-.7-11.6-1.6-17.4s-1.7-11.6-2.7-17.4c-.8-4.7-2.1-9.7-5.9-12.9.4-1.1.8-2.1,1.1-3.2l.1-.4c2.9,4,5.3,7.9,6.4,12.8,1.2,5.7,1.4,11.7,2.2,17.5.8,5.6,1.6,11.2,2.9,16.7a102.42,102.42,0,0,0,5.3,16.5c1.1,2.7,1.9,5.6,3.5,8,1.3,1.9,3.2,3.4,4.5,5.3-.1.2-.2.5-.3.7a16,16,0,0,1-2.1,3.2Zm-21-82-.1-.1c-.1-.1-.2-.1-.4-.1h-.2l.2-.6c2.6,3.3,5.5,6.4,7.1,10.4a66.1,66.1,0,0,1,2.4,9c.7,3.1,1.3,6.2,1.7,9.3a162.67,162.67,0,0,0,3.3,18.5c.8,3,1.8,5.9,2.6,8.8.7,2.5,1,5.1,1.7,7.7,1.1,4,2.8,8.9,6.2,11.5a12.86,12.86,0,0,1-.4,1.9c-1-1.2-2.1-2.3-3.1-3.5-1.8-2.1-2.7-4.9-3.7-7.5s-2.2-5.2-3.1-7.9-1.7-5.5-2.4-8.3c-1.3-5.5-2.1-11.1-3-16.7-.9-5.9-1.1-11.9-2.2-17.7a30.87,30.87,0,0,0-2.5-7.8,52.31,52.31,0,0,0-4.1-6.3v-.3a.19.19,0,0,0,0-.3Zm19.7,62.3c-.6-2.5-1-5-1.7-7.5-.8-2.9-1.8-5.7-2.5-8.6-3.1-11.9-3.4-24.4-7.2-36.1-1.6-5.1-5.4-8.7-8.4-12.9a7.58,7.58,0,0,0,.1-2.6,26.93,26.93,0,0,1,2.7,2c3.5,3,5.3,7,6.5,11.5,1.4,4.8,2.1,9.8,3.4,14.7,1.3,5.3,2.6,10.6,3.7,16,1.1,5.1,2.1,10.3,3.6,15.3,1.4,4.4,3,8.8,4,13.3a29.56,29.56,0,0,1,.6,5.1c-2.6-2.5-3.9-6.8-4.8-10.2Zm-22.8-56c3.2,3,4.2,7.4,4.9,11.6q1.5,8.55,2.7,17.1c.8,5.7.7,11.7,1.6,17.5a67.71,67.71,0,0,0,1.9,8.7,79.81,79.81,0,0,0,2.6,8.3c2.1,5.2,5.8,9.6,9.5,13.7-1.3,1.4-2.6,2.7-4,4v-.1a14.24,14.24,0,0,1-3.7-5.1,56.57,56.57,0,0,1-2.7-6.8c-.8-2.4-1.4-4.8-2.3-7.2-1.1-3.1-2.2-6.1-3.3-9.2-2.1-6.3-2.9-12.7-3.7-19.2-.6-4.8-.4-9.6-.7-14.4-.3-5.1-1-10.5-4.3-14.6h-.1c.6-1.5,1.1-2.9,1.6-4.3Zm-2.3,5.6c2.8,3.7,3.3,8.7,3.5,13.3.2,4.9.1,9.8.7,14.7.8,6.4,1.6,12.6,3.6,18.7,1,3.1,2.2,6.2,3.3,9.3.8,2.4,1.5,4.8,2.3,7.1a46.24,46.24,0,0,0,2.9,7.3,15.76,15.76,0,0,0,4.1,5.8c-1.1,1-2.2,1.9-3.2,2.9a37.51,37.51,0,0,0-2.4-4.4,86.67,86.67,0,0,1-3.6-8.3c-2.1-5.3-4.6-10.4-6.3-15.9s-2.4-11.5-3.1-17.4a136.6,136.6,0,0,1-1.7-16.8c0-3.6.2-8.5-2.2-11.5.5-1,1-2.1,1.5-3.1a11.5,11.5,0,0,1,.6-1.7Zm-3,6.3c1.8,2.8,1.5,7,1.5,10.1a152.89,152.89,0,0,0,1.6,16.6c.7,5.4,1.2,10.9,2.7,16.2s4,10.5,6.1,15.7c1.2,2.9,2.3,5.9,3.6,8.7,1,2.1,2.6,4.2,3.3,6.5a22.84,22.84,0,0,0-2.2,2.2c-1.1-1.4-1.4-3.3-2.1-4.8a46.31,46.31,0,0,0-3.9-5.9c-2.7-4.3-4.4-9.4-5.9-14.2a111.2,111.2,0,0,1-3.8-15.1,75.69,75.69,0,0,1-1-15c.1-5.6.2-11.3-1.5-16.7a.82.82,0,0,0-.5-.5c.8-1.2,1.4-2.5,2.1-3.8Zm-2.8,5.3c1.5,4.8,1.4,10,1.3,15a75.14,75.14,0,0,0,.9,15,130.86,130.86,0,0,0,3.6,15.3,72,72,0,0,0,5.5,14.2c1.3,2.4,3.2,4.5,4.5,6.9.9,1.8,1.2,3.9,2.6,5.4l-.1.1c-1,1-2,2-2.9,3.1a58.4,58.4,0,0,1-5.1-10.7c-1.8-4.4-3.8-8.8-5.2-13.4-3-9.6-4.4-19.6-5.6-29.5-.7-5.6-1.2-11.2-1.9-16.8,0-.1-.1-.2-.1-.3.8-1.4,1.7-2.8,2.5-4.3Zm-3.7,6.3c1.1,9.5,2,19,3.6,28.5a127.92,127.92,0,0,0,3.3,14.9,114.83,114.83,0,0,0,5.2,13.8c1.9,4.3,3.3,8.8,6,12.7a17.88,17.88,0,0,1-1.3,1.4c-1.9-3.8-3.4-7.7-5.2-11.5-2-4.3-4.2-8.5-6.2-12.9a90.62,90.62,0,0,1-5.2-13.4,51,51,0,0,1-1.6-14c0-4.8.3-9.8-1.8-14.3,1-1.6,2.1-3.4,3.2-5.2Zm-4.3,6.9c1.6,3.9,1.3,8.4,1.3,12.6a57.44,57.44,0,0,0,1.4,13.7c2.4,9,6.9,17.3,10.9,25.6,2.2,4.6,4,9.3,6.3,13.8-1,1.2-2,2.5-2.9,3.7-1.7-3.3-3.6-6.6-5.3-10-2-4.1-4-8.2-5.8-12.3a88.88,88.88,0,0,1-7.2-26.7c-.3-2.5-.4-5.1-.8-7.6a54.93,54.93,0,0,1-1.1-8c1.1-1.7,2.2-3.3,3.2-4.8Zm-4.3,6.7a35,35,0,0,0,.7,4.5c.5,2.5.6,4.9.9,7.4a115.07,115.07,0,0,0,2.3,14.3c2,8.9,6.2,16.9,10,25.1,2,4.4,4.4,8.5,6.6,12.8a27.55,27.55,0,0,0-1.7,2.9c-1.9-3.3-3.7-6.7-5.5-10a98.33,98.33,0,0,1-5.8-12.8c-1.6-4.3-3-8.6-4.4-12.9a98.9,98.9,0,0,1-2.9-13.1,77.49,77.49,0,0,0-3-13.5c.9-1.6,1.8-3.2,2.8-4.7Zm-3.8,6.4h0c2.4,7.7,2.5,16,4.9,23.8,2.7,8.7,5.5,17.5,9.7,25.6,2.2,4.4,4.5,8.7,7.1,12.9a27.73,27.73,0,0,0-1,2.6,14.16,14.16,0,0,0-.4,2l-.7-.6-.1-.1a1.34,1.34,0,0,0-1.1-1.5h-.1a62.16,62.16,0,0,1-3.5-5.4,51.83,51.83,0,0,1-4.9-11.6c-3-9.5-6.9-18.7-9.9-28.2a67.72,67.72,0,0,1-2.2-7.7c-.3-1.9-.8-3.8-1.3-5.7,1.3-2,2.4-4,3.5-6.1Zm18.6,69.3c.8.6,1.5,1.2,2.3,1.8a1.46,1.46,0,0,0,2-.5h0a1.85,1.85,0,0,0,.2-.7c-.4-3.7,1.4-7.1,3.3-10.1a70.41,70.41,0,0,1,7.7-9.6c2.5-2.7,5.1-5.3,7.8-7.7a63.62,63.62,0,0,0,8.7-8.5,18,18,0,0,0,4.2-10.6c.1-4.4-1.3-8.9-2.6-13-1.5-4.6-2.9-9.1-4-13.8l-3.6-16.5c-1.2-5.1-2.5-10.1-3.6-15.3-1-4.8-2.1-9.8-4.4-14.2a18.83,18.83,0,0,0-3.1-4.3l4,2a89,89,0,0,0,18.9,6.2,77,77,0,0,0,19.7,1.9c6.1-.2,12.5-1,18.1-3.5a32.21,32.21,0,0,0,8.7-5.3c-1.2,4.2-2.5,8.5-3.9,12.6a96.36,96.36,0,0,0-4.6,16.5c-1,5.9-1.6,11.9-2.5,17.8s-2.2,12-3.2,18c-.7,4.3-1.1,8.5-1.5,12.8a.75.75,0,0,0-.1.8c-.6,7.4-.8,14.8-1.4,22.1-.2,3.1-.5,6.1-.4,9.2a40.4,40.4,0,0,0,1.1,8.5,70.76,70.76,0,0,1,1.6,8c.3,2.3.5,4.6.8,7,2.2,19.2,4.6,40.3,17.5,55.7,5.6,6.7,13.1,10.7,21.5,13,2.5.7,4.9,1.5,7.5,2a33.85,33.85,0,0,0,8.4.4c6-.3,12-.1,17.9-.5a67.61,67.61,0,0,0,26.1-6.3h0a.86.86,0,0,0,.6-.3c1.5-.8,3-1.6,4.5-2.5a144.91,144.91,0,0,0,12.8-9.4,151.75,151.75,0,0,0,12.5-10.3,288.29,288.29,0,0,0,21.7-25.2,74.66,74.66,0,0,0,7.1-13.4,125.77,125.77,0,0,0,5.4-14.9c2.7-10.5,1.8-21.7,1.8-32.5,0-12.3-.3-24.6-.8-37-.3-6.3-.5-12.6-.7-18.9-.1-5.8-.1-11.5-.5-17.2-.3-5.5-.8-11.2.1-16.7s3.2-10.4,5.6-15.3,5-9.8,7.1-14.9a106.26,106.26,0,0,0,3.2-11,25.72,25.72,0,0,1,1.5-4.7c.1-.3.3-.5.4-.8h.9l.3.3c.1.2.3.3.4.4h0c.2.1.3.2.5.2h.4v.1a1.2,1.2,0,0,0,1,.7c4.1,6.6,5.8,14.5,7.2,22.1.8,4.4,1.4,8.8,2,13.2s1.6,9,2.3,13.6c1.9,11.5,2.1,23.3,2.1,34.9s.1,23,.3,34.5c.2,11.3.1,22.6-2,33.8-1,5.3-2.5,10.6-3.7,15.9s-2.3,10.5-3.5,15.8c-2.4,10.5-5,21-9.1,31A147,147,0,0,1,611,583.6a182.45,182.45,0,0,1-64.1,57.5c-4.3,2.3-8.7,4.4-12.9,6.8a99,99,0,0,1-11.2,5.8,48.87,48.87,0,0,1-13.7,2.6c-5.3.4-10.6,1.4-15.8,2s-10.6,1.2-15.8.2a63.25,63.25,0,0,1-14.7-4.8c-9.6-4.2-18.5-9.9-27.1-15.9-7.9-5.5-16-11.1-22.5-18.3-12.3-13.8-18.8-31.8-24.3-49.2-1.3-4.2-2.5-8.3-3.9-12.5s-2.9-8.2-4.4-12.3c-3-8.5-6.1-17.4-6.6-26.4A25.86,25.86,0,0,1,374.7,510.4ZM480,339.1c1.2-3,2.2-6,3.3-9.1.5-1.5,1.1-3,1.6-4.5a8.88,8.88,0,0,0,2.3.1,12.67,12.67,0,0,1,3.4.4,60.07,60.07,0,0,0,7.2,1.2,126.9,126.9,0,0,1,13.7,2.5,54.38,54.38,0,0,1,13,4.6c4.2,2.1,8.2,4.5,12.3,6.7,8.4,4.5,16.7,9.5,24.8,14.6a91.15,91.15,0,0,1,10.6,7.9c3.5,2.9,7.1,5.8,10.7,8.7,4,3.2,7.6,6.8,11.5,10,3.5,2.9,7.6,4.9,10.7,8.2-.9,8.4.6,17.2.6,25.5,0,12.5.8,24.9,1.2,37.3.4,11.9.3,23.8.4,35.7a99.6,99.6,0,0,1-.8,16.4,77.54,77.54,0,0,1-4.5,14.9,90.52,90.52,0,0,1-6.6,14.1l-.3.5a1.42,1.42,0,0,0-.6.2c-4.2,2.8-8.4,5.5-13.4,6.5-5.7,1.1-11.8.9-17.5.6-11.7-.6-23.3-2.8-34.9-4.2a132.69,132.69,0,0,0-19.9-1,1.54,1.54,0,0,0-1.5,1.5,49.66,49.66,0,0,1-6.5,23.5,106.42,106.42,0,0,1-6.6,9.9,63.12,63.12,0,0,1-7.1,8.4,16.3,16.3,0,0,1-10.6,4.6h-.1c-1.1-.6-2.3-1.2-3.4-1.8-7.6-4.8-12.9-12.7-16.3-20.8-3.9-9.2-5.8-19.2-7.2-29-.5-3.3-.9-6.7-1.2-10a1.53,1.53,0,0,0,1.5-1.7c0-.2-.1-.4-.1-.6a8.59,8.59,0,0,1-.3-4.2,31.89,31.89,0,0,1,1.2-6,88.79,88.79,0,0,1,4.4-12.2,147.57,147.57,0,0,1,9.6-18,.55.55,0,0,0,.3-.5l7.2-11.7c2.9-4.9,6-9.7,9.1-14.5s6.1-9.9,7.8-15.4a19.34,19.34,0,0,0,1-7.2,12.87,12.87,0,0,0-2.2-5.4c-2.7-3.9-6.3-7.1-9.8-10.3a59.27,59.27,0,0,1-10.9-14,14.3,14.3,0,0,1-1.7-3.8c-.3-1.2-.5-2.5-.7-3.7-.3-1.8-.5-4.4-2-5.7.5-1.9,1-3.7,1.5-5.6.1-.1.1-.3.2-.4a1.48,1.48,0,0,0,.1-.7,5.73,5.73,0,0,1,.4-1.4c.8-2.9,1.5-5.8,2.3-8.8a57.57,57.57,0,0,1,1.8-5.9c2.2-5.4,5.1-10.7,7.3-16.1m21-69.4c9.2,3.9,19.4,3.3,29.1,2.6,2.9-.2,5.8-.5,8.8-.6a56,56,0,0,0,5.9,1.2,43.9,43.9,0,0,1,8.2,1.4,21.62,21.62,0,0,1,5.8,3.1,56.26,56.26,0,0,1,10.1,10c3.1,3.6,6.1,7.2,9.4,10.6,4,4.1,8.2,8.1,11.9,12.5,3.9,4.6,7.9,8.9,11.9,13.3.8.9,1.6,1.8,2.3,2.7-1.6-1.5-3.1-3.1-4.7-4.6-8.1-7.8-16.3-15.8-24.9-23.2q-5.1-4.5-9.9-9.3a80.89,80.89,0,0,0-10.4-9c-3.5-2.4-7.4-4.3-11.7-4.5-4.7-.3-9.4.8-14.1,1.4a61.09,61.09,0,0,1-14.8-.2c-4.8-.5-10-1.6-13.7-4.8a8.65,8.65,0,0,0,.8-2.6Zm120.3,72.4a12.66,12.66,0,0,1-2.5-2.1c-1.5-1.5-3-3-4.4-4.6-3.2-3.6-6.3-7.3-9.5-11-3.9-4.4-8-8.7-11.8-13.2s-7.7-8.5-11.8-12.6c-3.5-3.5-6.8-7.2-10-11a76.41,76.41,0,0,0-9.7-10,24,24,0,0,0-11.8-5.6c-1-.2-2.1-.3-3.1-.4v-.1a29.91,29.91,0,0,1,12.8,3.2c8.4,4.5,15.2,11.8,21.5,18.7,7.6,8.1,14.4,17,21.7,25.3,6.7,7.5,14,14.7,18.6,23.4ZM505.7,245.1V245a1.21,1.21,0,0,0-.5-.5,1.85,1.85,0,0,0-.7-.2.75.75,0,0,0-.5.1c.3-2.9.8-6,1-9,.2-2.6.2-5.2.2-7.8,6.5,5.3,10.3,13.5,14.6,20.4a113.79,113.79,0,0,0,8.5,11.2c3.4,4.1,6.7,8.3,10.2,12.3a70.27,70.27,0,0,0,9.2,8.9c-8.5-4.1-15.9-10.4-22.9-16.6a46.5,46.5,0,0,1-6.1-7.2,61.41,61.41,0,0,0-7.1-8.2A12.39,12.39,0,0,0,505.7,245.1Zm-1.9,1.3h1.3c2.3.3,4.4,2,6,3.5a65.28,65.28,0,0,1,6.8,8,50.34,50.34,0,0,0,6,7c3.4,3.1,7,6,10.7,8.9a67,67,0,0,0,10.6,7c-.9-.1-1.8-.1-2.8-.2A140.86,140.86,0,0,1,522,270a29.12,29.12,0,0,1-6-5.6,59.51,59.51,0,0,0-6.5-6.8,12,12,0,0,0-6.4-3.1C503.5,251.8,503.6,249.1,503.8,246.4ZM618.7,354.7h0a2.19,2.19,0,0,1,.3.5l-.6-.6Zm.9-1.6a36.68,36.68,0,0,0-3.6-6c.6.6,1.2,1.1,1.8,1.6a5,5,0,0,0,2.6,1.3A20.26,20.26,0,0,1,619.6,353.1ZM603,331.2c-7.4-8.2-14.2-16.9-21.5-25.1-6.5-7.2-13.3-14.7-21.3-20.1a29.41,29.41,0,0,0-7.5-3.8c-.1-.1-.1-.2-.2-.3-9.1-5.7-15.5-14.7-22.3-22.8a109.31,109.31,0,0,1-8.8-11.5c-2.6-4.1-4.9-8.4-7.6-12.4a40.51,40.51,0,0,0-8.5-9.5c-.1-2.4-.2-4.9-.3-7.3,4.8,3,8.6,7.7,12.1,12,4.1,5.1,8.4,10.2,12.1,15.6,4,5.7,7.6,11.6,12.1,16.9a92,92,0,0,0,7.7,7.6c3,2.6,5.9,5.3,8.8,8a368.72,368.72,0,0,1,32.5,34.8c5.5,6.8,10.4,13.9,15.6,20.9ZM503,256a10.7,10.7,0,0,1,5.8,2.9,79.36,79.36,0,0,1,6.3,6.7,25.73,25.73,0,0,0,5.9,5.5c3.3,2.1,6.8,3.9,10.2,5.7,2.4,1.3,4.8,2.5,7.3,3.6-1.2,0-2.3,0-3.5.1a40.77,40.77,0,0,0-5.9-1.1,47.73,47.73,0,0,1-9.2-1.5,32.36,32.36,0,0,1-7.3-3.4c-4-2.4-7.8-5.2-12-7.1A77.16,77.16,0,0,0,503,256Zm-4.2,18.3c.5-1.8,1-3.7,1.5-5.5,3.8,1.7,7.2,4.2,10.7,6.4a33.35,33.35,0,0,0,13.2,5.1l5.7.6c-10.8.8-22.1,2.1-32.2-2.3h0c.3-1.4.7-2.8,1.1-4.3Zm-2.5,9.8a23.62,23.62,0,0,0,10.4,4.2,74.47,74.47,0,0,0,12.5,1.1c4.7.1,9.4-1,14.1-1.6a32.8,32.8,0,0,1,7-.2,16.72,16.72,0,0,1,6.5,2.2c8.1,4.3,13.9,11.7,20.6,17.7,8.3,7.4,16.5,14.9,24.5,22.6,9,8.6,18,17.4,26.4,26.6a30.54,30.54,0,0,1-1.3,3.2c-4.7-6.5-12.1-10.7-18.2-15.7-3.9-3.1-7.1-6.9-10.7-10.3-4-3.8-8.2-7.4-12.5-10.9-3.9-3.2-7.8-6.3-11.4-9.9-3.4-3.3-6.6-6.8-10.1-10a36.58,36.58,0,0,0-10.9-7.3c-5-2-10.3-1.8-15.5-1.3-5.9.6-11.7,1.2-17.5-.2-5.3-1.3-10.1-3.8-14.9-6.3a.35.35,0,0,1-.2-.1,24,24,0,0,0,1.2-3.8Zm-1.5,5.3a95.23,95.23,0,0,0,12.6,5.7,40,40,0,0,0,14.6,1.6c5.1-.4,10.2-1.4,15.3-.8s9.4,3,13.2,6.1c3.6,3.1,7,6.4,10.3,9.8a139.75,139.75,0,0,0,10.7,9.7c4.2,3.5,8.4,7,12.5,10.6,2,1.9,4.1,3.7,6,5.7,1.7,1.7,3.3,3.6,5.1,5.2,3.7,3.4,7.8,6.2,11.7,9.2,3.6,2.8,7.1,5.7,9.6,9.4-.5,1.1-1,2.2-1.5,3.2-1.8-3.4-4.8-6.1-7.6-8.6-3.5-3-7.2-5.6-10.6-8.6-4-3.4-7.5-7.2-11.5-10.7s-8.4-7.1-12.7-10.5c-8.5-6.7-17.4-13-26-19.6a60.75,60.75,0,0,0-6.4-4.5,24.09,24.09,0,0,0-6.3-2.4,53.9,53.9,0,0,0-13.3-1,129,129,0,0,1-13.9-.3c-4.5-.5-9.5-1.6-12.7-5-.1-.2-.3-.2-.6-.2.1-.2.1-.4.2-.6.5-1.1.9-2.3,1.3-3.4Zm-1.8,5.4c5.4,5.8,14.8,5.7,22.1,5.7,9.1,0,18.6-.9,26.5,4.5,4.4,3,8.6,6.5,12.9,9.7s8.8,6.5,13.1,9.8A256.5,256.5,0,0,1,592.7,346a145.61,145.61,0,0,0,11.3,9.5c3.6,2.9,7.6,6.1,9.7,10.4l.3.3c-.5.9-.9,1.8-1.4,2.6a15.32,15.32,0,0,1-4-3.1c-1.6-1.6-3.1-3.3-4.6-4.9-3.4-3.6-7.5-6.4-11.3-9.6-7.5-6.3-14.2-13.5-21.5-20.1a137.85,137.85,0,0,0-23-17.2,55.74,55.74,0,0,0-12.9-5.9,47.11,47.11,0,0,0-13.5-1.6c-10.5-.1-21.6,1.3-31-4.5h0C491.5,299.6,492.2,297.2,493,294.8Zm-2.3,8.7c8,4.7,17.3,4.6,26.3,4.5a75.12,75.12,0,0,1,14.2.7,47,47,0,0,1,13.5,5.1,121.75,121.75,0,0,1,23.8,17.1c7.4,6.5,14.2,13.6,21.5,20.1,4.2,3.7,8.9,6.8,12.8,10.9,2.8,2.9,5.5,6.8,9.3,8.6-.5.9-.9,1.9-1.4,2.8a14.78,14.78,0,0,0-2.5-2.5,58.45,58.45,0,0,0-4.8-3.9,35.29,35.29,0,0,1-6-5.6c-1.7-1.9-3.3-3.9-5-5.9-1.9-2.1-3.9-3.9-5.9-5.9-3.9-3.8-7.8-7.6-11.9-11.1-2-1.8-4.1-3.4-6.2-5s-4.5-3-6.6-4.8c-3.8-3.2-7.1-6.8-11.7-8.8q-3.75-1.5-7.8-2.7c-2.6-.8-5.1-1.8-7.6-2.8a52.91,52.91,0,0,0-14.1-4c-5.3-.6-10.5.4-15.8.6-5,.2-10.6,0-15-2.7h0c.3-1.6.6-3.1.9-4.7Zm-1.5,7.7.3-1.5c3.3,2,7.3,2.6,11.1,2.7a107,107,0,0,0,12.7-.6,38.45,38.45,0,0,1,14.3,1.6c4.8,1.5,9.4,3.7,14.2,5.2,2.5.7,5,1.6,7.4,2.5a24.07,24.07,0,0,1,6.4,4.1c1.8,1.5,3.4,3.1,5.2,4.6s3.9,2.8,5.8,4.2a131.63,131.63,0,0,1,12.1,10.3c3.7,3.5,7.5,7,11.1,10.6,3.9,4,7.1,8.8,11.6,12.3,1.9,1.5,3.8,2.8,5.6,4.4.6.5,1.2,1.1,1.7,1.6l.6.6a.63.63,0,0,0,.3.8h0l.3.1c-.6,1.3-1.2,2.6-1.8,4-13.3-14.1-25.7-29.1-41.1-41a139.34,139.34,0,0,0-23.7-15,61.12,61.12,0,0,0-26.8-7.4c-4.6-.3-9.2-.2-13.8-.2s-9.2-.1-13.5-1.6a.45.45,0,0,0-.5,0c.2-.7.3-1.5.5-2.3Zm-.8,3.5c.1.2.2.3.4.3v.1c3.6,1.3,7.6,1.5,11.4,1.6,4,.1,8.1,0,12.1.1a64.82,64.82,0,0,1,27.1,5.9c17,8,32.1,19.6,45.2,33.1,7.8,8,15.2,16.5,22.9,24.6-.3.8-.6,1.7-.9,2.5a196,196,0,0,1-20.1-18.6,116.82,116.82,0,0,0-10.1-9.8,122.39,122.39,0,0,0-11-7.9c-7.1-4.7-13.8-9.9-21.1-14.3a57,57,0,0,0-11.1-5.4c-4.3-1.5-9.1-2-13.5-2.9-5.5-1.1-11.2-1.9-16.7-3-5.2-1.1-10.3-2.7-15.7-2.4.4-1.3.8-2.6,1.1-3.9Zm-1.7,6c.1-.2.1-.4.2-.6,4.9-.4,9.6.9,14.3,2s9.7,1.7,14.5,2.6,9.8,1.8,14.6,2.9a42.69,42.69,0,0,1,11,4.6c7.2,4.1,13.8,9.2,20.7,13.8,3.8,2.5,7.6,5,11.2,7.7a83.22,83.22,0,0,1,10.3,9.4A214.92,214.92,0,0,0,605,383.2a.72.72,0,0,0,.5.9c.3.1.5.2.8.3-.2.7-.3,1.3-.5,2-2.5-2.2-5.3-3.8-8-5.8-3.6-2.7-6.8-6.1-10.3-9s-7.3-5.8-10.8-8.8-6.8-5.7-10.4-8.2c-3.9-2.7-8.1-5-12.2-7.5s-8.4-5.1-12.7-7.5-8.3-4.6-12.5-6.8a57.58,57.58,0,0,0-12.8-5.3,112.35,112.35,0,0,0-15.1-3.1,59.29,59.29,0,0,1-8.3-1.2,27,27,0,0,0-3.9-.8c-.9-.1-1.8.1-2.7,0,.1-.4.4-1.1.6-1.7Zm52.5,264.6a12.49,12.49,0,0,1,.9-1.2c1.7-2.5,3.2-5.2,4.8-7.8a48.63,48.63,0,0,0,5-9.6,46.48,46.48,0,0,0,2.2-11.1c.3-3.9.3-7.7.3-11.6l4.4.5c0,7.5.1,15.1-2.8,22.2a73,73,0,0,1-5,10.1c-1.3,2-2.9,3.8-4.2,5.8A57.66,57.66,0,0,1,539.2,585.3Zm-25-45.5c4.6,7.8,1,17.1-3.7,24a102.09,102.09,0,0,1-8.9,10.8,91.46,91.46,0,0,1-8.6,7.9l-3.9,3.3c-.6.5-1.2,1-1.9,1.5a3,3,0,0,0-.7.5h0c-.1-.1-.1-.1-.2-.1a.35.35,0,0,1-.2-.1,21.46,21.46,0,0,0,5-4,74.79,74.79,0,0,0,7.1-8.7c4.8-6.6,10.7-12.9,13.4-20.6a25,25,0,0,0,.1-14.6,21.75,21.75,0,0,0,2.5.1Zm-4.1,0h0a23.73,23.73,0,0,1,.4,13.2,38.48,38.48,0,0,1-6,11.1c-2.1,3-4.4,5.8-6.5,8.7a104.62,104.62,0,0,1-6.5,8.4c-2.3,2.6-5.1,5.4-8.7,6a8.8,8.8,0,0,1-1.5-.5c5.7-1.9,10.2-6.7,13.8-11.5,5.1-6.8,10-13.9,12.6-22a48.89,48.89,0,0,0,2.4-13.4ZM485.5,588Zm3,.4c1.3-1,2.5-2.1,3.8-3.1a107.74,107.74,0,0,0,8.8-7.7A99.41,99.41,0,0,0,511,566a38.26,38.26,0,0,0,6.3-12.8,18.82,18.82,0,0,0-1.2-13.2c1.2,0,2.3.1,3.5.2v.1c0,4.3.1,8.5-.8,12.7a63,63,0,0,1-3,10.5c-3,7.2-8.7,12.6-14.3,17.8a79.87,79.87,0,0,1-10.7,8.5c-.9-.2-1.9-.5-2.8-.7ZM510,574.6a34.53,34.53,0,0,0,6.4-9.2,55.83,55.83,0,0,0,3.5-10.7,70.41,70.41,0,0,0,1.2-14.5l3.6.3c-.8,4.1-.2,8.2-.5,12.4a34.61,34.61,0,0,1-3.7,12.6,52.86,52.86,0,0,1-7.2,10.3c-2.4,2.7-4.5,5.7-6.9,8.4a26,26,0,0,1-6.8,6,36.49,36.49,0,0,1-6.6-.3c6.2-4.2,11.8-9.7,17-15.3Zm3.1,3.5a66.92,66.92,0,0,0,7.5-10,38.61,38.61,0,0,0,4.6-12.4c.8-5-.1-10.1.9-15.1,1.2.1,2.3.2,3.5.4-.1,3.6-.4,7.2-.6,10.8-.2,4.1,0,8-2,11.8-1.7,3.4-4.2,6.3-6.3,9.4-2.5,3.5-4.8,7.1-7.5,10.4-2,2.5-4.8,4.1-6.8,6.6l-4,.1c4.2-3.1,7.5-8.1,10.7-12Zm1,6.5c2.7-3.2,5-6.8,7.4-10.2,2.2-3.2,4.7-6.2,6.5-9.5a22.27,22.27,0,0,0,2.4-11.1c.1-4.2.5-8.4.6-12.6,1.7.2,3.4.4,5,.7,0,6.8.1,13.9-1.8,20.5a25,25,0,0,1-5.4,9.5c-2.4,2.8-4.9,5.5-7.2,8.4A97.84,97.84,0,0,1,513,590c-1.5,0-3.1.1-4.6.1,1.8-2,4.1-3.5,5.7-5.5Zm7.9-2.4c2.5-3.1,5-6,7.6-8.9a27,27,0,0,0,5.5-9,50.31,50.31,0,0,0,2.1-10.8c.3-3.8.3-7.6.3-11.4l3.1.4c0,2.3-.2,4.6-.4,6.9-.2,2.5-.3,5-.7,7.5a46,46,0,0,1-4.5,12.9,49,49,0,0,1-3.8,6.2c-1.3,1.7-2.8,3.3-4.3,4.9a39.79,39.79,0,0,0-3.5,4.6,11.48,11.48,0,0,1-3.8,4.1l-4.5.3a81.2,81.2,0,0,0,6.9-7.7Zm4,2.2c2.1-2.9,4.8-5.4,7-8.3a44.12,44.12,0,0,0,5.3-9.8,41,41,0,0,0,3-10.9q.75-6.45.9-12.9l2.4.3,1.3.2c-.1,3.1-.5,6.2-.8,9.2a53.07,53.07,0,0,1-2,10.4,42.47,42.47,0,0,1-4.8,9.8c-2,3.2-3.6,6.7-5.9,9.8-.9,1.3-1.9,2.6-2.9,3.8a11.85,11.85,0,0,1-2.5,2.5c-1.5.2-3.1.5-4.7.6a20.73,20.73,0,0,0,3.7-4.7Zm6.3.5a107.53,107.53,0,0,0,6-9.5c1.9-3.3,4-6.4,5.4-10a44.8,44.8,0,0,0,2.6-10.8c.5-3.7.9-7.5,1.1-11.3l3.5.5c0,8.7.1,17.8-3.8,25.7-1.9,3.7-4.2,7.1-6.3,10.7-.8,1.4-1.7,2.8-2.6,4.1a12.86,12.86,0,0,1-1.9,2.1,4.87,4.87,0,0,0-1.1.4,43.91,43.91,0,0,1-5.2,1.3c.7-1,1.6-2.1,2.3-3.2Zm18.3-8.1a80.2,80.2,0,0,0,5-10.2c2.7-7,2.7-14.6,2.6-22,1.6.2,3.3.3,4.9.4a96.8,96.8,0,0,1-1.5,17c-1.2,5.8-3.5,11.7-8.6,15.1-.1.1-.2.1-.2.2-1.6,1.2-3.3,2.4-5,3.5a36,36,0,0,0,2.8-4ZM563,563a89.73,89.73,0,0,0,1.7-17.9c1.5.1,2.9.1,4.4.1.1,2.7.3,5.3.2,8a54.78,54.78,0,0,1-2,11.5,18,18,0,0,1-.8,2.1c-1.5,1.2-2.9,2.4-4.4,3.5l-2.4,1.9A42,42,0,0,0,563,563Zm6.7-2.5a61.66,61.66,0,0,0,.9-6.2,70.62,70.62,0,0,0-.1-9.2c1.2,0,2.3,0,3.5-.1a18.69,18.69,0,0,1,.8,8.8c-.3,3-1,6.6-3.4,8.5l-.2.2c-.8.7-1.6,1.5-2.5,2.2a23.16,23.16,0,0,0,1-4.2Zm7.6-15.6a64.3,64.3,0,0,1-.2,7.6,14.33,14.33,0,0,1-1.6,5.7,25.69,25.69,0,0,0,.7-4,21.42,21.42,0,0,0-.7-9.1Zm1.2,8.2a59,59,0,0,0,.3-8.4c.5-.1,1-.1,1.5-.2a14,14,0,0,0,2.8-.6,28.1,28.1,0,0,1-.4,5,12.09,12.09,0,0,1-.5,1.8l-4.2,4.8a8.49,8.49,0,0,0,.5-2.4Zm6.2-9.5a32.38,32.38,0,0,0,6-2.7c-1.7,2.1-3.4,4.1-5.1,6.2l-1.1,1.3c.1-1.6.2-3.3.2-4.8ZM461.5,395.2a20,20,0,0,0,1.9,6.3,64.48,64.48,0,0,0,5.4,8.2,45.13,45.13,0,0,0,4.4,5.4c3.3,3.4,6.9,6.3,10,9.9a14.74,14.74,0,0,1,3.2,5,7.27,7.27,0,0,1,.4,2.5,63.11,63.11,0,0,0-6.4-7.3c-3.1-3-6.3-5.9-9.2-9.1-5.2-5.7-10.6-12.8-10.7-20.9v-.1a25.82,25.82,0,0,0,.8-2.6A19.94,19.94,0,0,0,461.5,395.2Zm-2.3,3.5c1.2,6.6,5.4,12.4,9.7,17.3,2.9,3.3,6.1,6.3,9.2,9.3a66.57,66.57,0,0,1,8.2,9.4,9.36,9.36,0,0,1-.4,1.6c-.1.3-.2.7-.3,1-4.4-6-11-9.8-16.4-14.8-6.2-6-8.1-14.5-10.6-22.5h0Zm-1.4,4h.3c2.1,7.1,4.2,14.4,9.4,19.9,5.6,5.9,13.2,9.6,17.7,16.5-.4,1.3-1,2.5-1.5,3.7-2.1-2.4-3.5-5.3-6.1-7.3-3.5-2.6-7.1-5-10.1-8.3-5.2-5.8-11.5-13.4-10.4-21.8v-.1Zm-2.3,7c.9,6.7,5.8,12.8,10.1,17.7a59.63,59.63,0,0,0,10.1,8.6,18.26,18.26,0,0,1,4.5,4.7,23.27,23.27,0,0,0,2.7,3.5,53.86,53.86,0,0,1-3,5.2c-2.1-5.6-7.2-9.7-11.5-13.6A51.46,51.46,0,0,1,457.2,422c-1.5-2.8-2.9-6-2.5-9.2a.6.6,0,0,0-.1-.4c.4-.9.6-1.8.9-2.7Zm-1.8,7.4a20.63,20.63,0,0,0,1.2,3.5,45.59,45.59,0,0,0,4.9,8.2c3.7,5,8.5,8.7,12.8,13.1,2.6,2.6,5.2,5.5,6.2,9,0,.1.1.1.1.2l-.3.4-1.9,3a56.33,56.33,0,0,0-4.8-7.2c-2.7-3.1-5.8-5.8-8.6-8.7a46,46,0,0,1-6.4-8.8c-1.5-2.5-4-5.3-4-8.4h0c.3-1.5.5-3,.8-4.3Zm18.4,44.8a42.78,42.78,0,0,0-4.1-7.6,63.12,63.12,0,0,0-7.1-8.4,42.19,42.19,0,0,1-6-7.9c-1.7-2.9-3.1-6.2-2.9-9.5v-.1l.4-3.2a33.5,33.5,0,0,0,2.7,4.5,74.61,74.61,0,0,0,6,8.7c2.8,3.1,6,5.8,8.8,8.9a31.35,31.35,0,0,1,3.8,5c.7,1.2,1.4,2.4,2.1,3.5-1.2,2-2.5,4-3.7,6.1Zm-20.9-28.3a32,32,0,0,0,1.6,3.9,40.34,40.34,0,0,0,5.9,8.3,100.11,100.11,0,0,1,7.4,8.5,40,40,0,0,1,4.9,9.1c-.5.9-1,1.7-1.6,2.6l-.9,1.5c-1.9-5.3-5.6-9.9-8.9-14.5-1.9-2.6-4.2-4.9-6.2-7.5-1.7-2.3-2.3-4.9-3.1-7.6a22,22,0,0,0,.9-4.3Zm12.4,42.1a34.37,34.37,0,0,0-2.1-5.3,89.55,89.55,0,0,0-4.3-8.8c-2.7-4.9-7.1-9.2-8.3-14.9.3-1.7.6-3.5.9-5.2a13.27,13.27,0,0,0,1.9,4.2c1.7,2.5,4.2,4.9,6.2,7.4s3.8,5.3,5.6,8a30.58,30.58,0,0,1,4,8.1c-1.2,2.2-2.5,4.3-3.9,6.5Zm-15.2-25.6c1.7,4.2,4.9,7.8,7.2,11.7,1.6,2.7,2.8,5.6,4.2,8.5a37.94,37.94,0,0,1,2.8,7.3c-.8,1.3-1.6,2.7-2.4,4a107.16,107.16,0,0,0-5.1-13.3c-2.3-4.7-5.5-9-7.3-14,.2-1.6.4-2.9.6-4.2Zm.5,55.2a10.16,10.16,0,0,0-1.6-3.7,29.58,29.58,0,0,1-2.8-4.9c0-.1-.1-.2-.2-.3.1-2.8.4-5.6.6-8.3,1.3,2.5,1.9,5.4,2.9,8.1.2.6,1.4,3.8,2.6,4.8-.5,1.3-1,2.7-1.5,4.3Zm2.1-5.9-.1-.2a10,10,0,0,1-.8-1.4c-.5-1.1-1-2.3-1.4-3.4-1-3.1-1.8-6.2-3.6-8.8V485c.1-2.2.3-4.4.4-6.6,1.2,2.1,1.5,4.9,2.1,7,1,3.8,3.4,7.1,4.8,10.7v.1c0,.1-.1.2-.1.3-.4.9-.9,1.9-1.3,2.9Zm2.3-5.1c-1.5-3.3-3.5-6.3-4.4-9.9-.7-2.8-1.1-6.3-3.3-8.5.1-1.9.2-3.7.3-5.6a10.09,10.09,0,0,1,.7,1.5,56.64,56.64,0,0,1,2,5.8c.8,2.2,1.8,4.2,2.8,6.3l3.3,7.2c-.4,1.1-.9,2.1-1.4,3.2Zm2.3-4.7a132.87,132.87,0,0,1-5.9-13.4c-.9-2.6-1.8-6-3.7-8.2a4.1,4.1,0,0,1,.1-1.1c.1-1.4.3-2.7.4-4.1,4.2,7.6,9.3,15,10.8,23.6-.5,1-1.1,2-1.7,3.2Zm2.9-5.2c-2-8.7-7.5-16.3-11.6-24.2.1-1,.3-2,.4-3,1.7,3.8,4.1,7.3,6.1,11.1,2.5,4.8,3.9,10,5.8,15a3.48,3.48,0,0,0-.7,1.1Zm-12.8,17.5a9.37,9.37,0,0,1,1.9,5.1.75.75,0,0,0,.5.7c-.2.8-.5,1.6-.7,2.5s-.4,1.5-.6,2.3c-.1-.4-.1-.9-.2-1.3-.6-2.8-1.4-5.5-1.8-8.3a15.26,15.26,0,0,1-.3-3A15.07,15.07,0,0,0,445.7,501.9Zm91.5-282.3c4.9,2.5,8.8,6.7,12.4,10.7,3.7,4.2,7.1,8.8,10.5,13.3s6.9,8.7,9.8,13.5c5.6,9.6,9,20.3,14.2,30.1s12,18.5,19.1,27c3.8,4.4,7.5,9,10.9,13.7-3.8-4-8.4-7.6-12.5-11.6A132.11,132.11,0,0,1,590.1,303a97.38,97.38,0,0,1-9.3-14.6c-2.7-5.2-5.2-10.6-8-15.8s-5.8-10.2-8.9-15.2c-5.6-8.7-10.9-18.3-19-25.1-4.7-4-10.5-6.8-14.7-11.4-1.6-1.7-2.9-3.6-4.6-5.1,3.8,1,7.9,1.9,11.6,3.8ZM624,335.7c-1.1-1.7-2.1-3.5-3.1-5.3a116.86,116.86,0,0,0-7.9-11.9c-3.1-4.3-6.1-8.7-9.2-13-3-4.1-6.2-8.2-8.9-12.5a128.3,128.3,0,0,1-7.5-14.2c-2.4-5-4.9-9.9-7.5-14.8-4.8-9.1-9.8-18.4-16-26.6a62.82,62.82,0,0,0-11.7-11.9c-4.2-3.3-8.7-6.3-12.6-9.9v-.1c.2-3.3.6-6.6,1-9.9a20.9,20.9,0,0,1,4.2,4.2,45.2,45.2,0,0,0,5.1,5.6c4,3.9,7,8.7,10.4,13s7.2,8.7,10.4,13.4a62.51,62.51,0,0,1,4.3,7c1.3,2.5,2.4,5.2,3.6,7.8a291.76,291.76,0,0,0,18,32.3c3.4,5.3,6.8,10.5,10.3,15.8a137.4,137.4,0,0,1,7.5,12.2c2.3,4.5,4.4,9.2,7,13.6a38.45,38.45,0,0,0,5.9,8c-.3,0-.6.1-.9.1a12.29,12.29,0,0,1-2.4-2.9ZM543.8,184.8a1.61,1.61,0,0,0,.5-1.1h0V183c1.8,1.7,2.8,4.2,3.9,6.4,1.3,2.8,2.7,5.6,4.2,8.2,3.6,6.1,8.1,11.7,12.1,17.6s7.6,11.8,11.6,17.5,8.7,11.2,12.8,17.1A239.87,239.87,0,0,1,608.7,286c4.9,10.7,9.4,21.5,13.5,32.5a104.5,104.5,0,0,0,6.7,14.9c.5.8.9,1.5,1.4,2.3-5.8-7.1-8.1-16.3-11.5-24.8-4.4-11.1-11.2-21.3-17.8-31.2-6.9-10.2-14-20.3-20-31-3-5.4-5.5-11-8.9-16.1s-7.1-10.4-10.5-15.7c-2-3-3.6-6.2-5.6-9.3s-4.2-5.8-6.1-8.8c-1.3-2-2.3-4.3-3.4-6.4a13.43,13.43,0,0,0-3.2-4.3A28.8,28.8,0,0,0,543.8,184.8Zm96.5,152.9c-3.2-6.6-6.3-13.3-9.3-20s-6.3-13.6-9.2-20.5c-4.6-10.8-7.7-22.1-11.6-33.1-3.8-10.6-8.5-21.2-15.9-29.8a59.52,59.52,0,0,0-6.2-6.1,88.56,88.56,0,0,1-7.7-7.3c-2.5-2.6-4.8-5.2-7.2-7.8a33.2,33.2,0,0,1-5.6-8.7,91.77,91.77,0,0,0-5-9.9,95.5,95.5,0,0,0-7-9.7,66.64,66.64,0,0,1-6.4-9.3,32.15,32.15,0,0,0-4.5-7c.2-4.6.4-9.1.7-13.7l.2-3.3c5.4,5.7,10.9,11.3,16,17.3a77.86,77.86,0,0,1,7.6,10.5,96.72,96.72,0,0,1,5.1,11.4,42.08,42.08,0,0,0,5.6,9.9,60.54,60.54,0,0,0,8.6,8.2c5.4,4.3,11.4,7.7,16.1,12.7,8.9,9.4,13.9,21.8,17.6,34,3.8,12.5,6.3,25.3,10.2,37.8,2.6,8.1,5.5,16.1,7.9,24.2a101.2,101.2,0,0,1,2.5,10.9,83.86,83.86,0,0,0,2.2,10.2c0,.1.1.2.1.3-1.3,0-2.6.1-3.9.2M541.5,198.8c.4-2.8.7-5.5,1.2-8.3l.1-.6a13.09,13.09,0,0,1,2.4,3.7c1,1.9,1.9,3.9,3,5.8,1.7,2.6,3.6,5.1,5.4,7.6s3.4,5.4,5,8.1c3.2,5.4,7,10.4,10.5,15.6,1.7,2.6,3.4,5.2,4.9,7.9s2.8,5.4,4.2,8.1c5.8,10.9,12.9,21,19.7,31.1s13.7,20.2,18.5,31.3c4.3,9.9,6.5,20.9,13.9,28.9h-1.1a32.23,32.23,0,0,1-6.7-8.4c-2.3-3.9-4.3-8-6.3-12.1a111.25,111.25,0,0,0-7.1-12c-3.4-5.1-6.8-10.2-10.1-15.3A300.8,300.8,0,0,1,580.6,258c-2.5-5.3-4.6-10.6-7.8-15.6-3-4.4-6.3-8.7-9.7-12.8-1.9-2.4-3.9-4.8-5.7-7.3s-3.8-5-5.8-7.4c-2-2.1-4-4.2-5.9-6.4a24.18,24.18,0,0,0-5.1-5C541,202.1,541.2,200.5,541.5,198.8Zm-3.5,18a1.85,1.85,0,0,0,.7-.2,123.49,123.49,0,0,0,10.7,8.4,66.11,66.11,0,0,1,11.3,10.5c6.6,8,11.7,17.4,16.6,26.4,2.7,4.9,5.2,10,7.7,15s4.6,10,7.5,14.7c2.7,4.4,5.7,8.5,8.8,12.6s6.1,8.6,9.2,12.9a122.66,122.66,0,0,1,9.1,13.5c1.1,2.1,2.3,4.1,3.6,6.1a8.7,8.7,0,0,0,1.7,2.1l-.2.1c-3.5-2.2-5.4-6.1-7.6-9.5-3.3-4.8-6.8-9.4-10.6-13.9-7.3-8.9-14.5-17.7-20.2-27.8-5.4-9.7-8.8-20.4-14.2-30.1-2.7-4.9-6.2-9.2-9.6-13.6s-6.5-8.8-10.1-13c-3.8-4.5-8-9.4-13.3-12.3a22.81,22.81,0,0,0-4.5-2A12.79,12.79,0,0,0,538,216.8Zm-18.6-1.5h1.2a.72.72,0,0,0,.9.5,1.21,1.21,0,0,0,.5-.5h.1c1.4.4,2.6,1.8,3.5,2.7,1.3,1.4,2.5,3,3.9,4.4,4,4,9,6.7,13.3,10.2,8.2,6.5,13.4,15.9,19,24.6a289.8,289.8,0,0,1,16.8,30.4c4.9,10.1,12,19,19.5,27.3,4.3,4.7,9.3,8.6,13.8,13.1,4.1,4.1,7.1,9.1,10.9,13.5a5.64,5.64,0,0,0-.4,1.2h-.2c-2.9-.2-5.6-3.3-7.5-5.2-2.9-3.2-5.7-6.5-8.3-10-2.2-2.9-4.4-6-6.7-8.8-3.6-4.5-7.6-8.8-11.4-13.2-4.3-5-8.6-10.1-12.4-15.5s-7.1-11-10.5-16.6A164.08,164.08,0,0,0,554.8,257q-5.7-7-12-13.5c-2.3-2.4-4.5-4.9-6.7-7.5a92.46,92.46,0,0,0-6.3-7.5c-4.5-4.6-9.8-8.4-14.2-13.1A24.74,24.74,0,0,1,519.4,215.3Zm-4.8,0a.63.63,0,0,0,.1.9h0c4,4.3,8.7,7.8,12.9,11.8s7.8,9.1,11.8,13.6,8.5,8.9,12.4,13.6a132.18,132.18,0,0,1,11.1,16.5c3.5,5.7,6.8,11.5,10.6,17.1a178.2,178.2,0,0,0,12,15.5c4.1,4.9,8.5,9.6,12.6,14.5,2.3,2.8,4.4,5.8,6.5,8.6a109.49,109.49,0,0,0,9.2,11.2c2.1,2.2,4.9,5.1,8.1,5.5-.4,1.4-.8,2.8-1.1,4.2-.1,0-.2.1-.3.2h-.4a7.46,7.46,0,0,1-1.2-.7,22.74,22.74,0,0,1-3.2-3,110.58,110.58,0,0,1-8.1-10c-5.2-6.9-10-14.1-15.4-20.8a366.94,366.94,0,0,0-31.6-34.4c-2.8-2.7-5.7-5.3-8.5-7.9-2.7-2.4-5.5-4.7-7.9-7.3-4.8-5.1-8.5-11-12.5-16.8-3.6-5.2-7.6-10-11.5-15s-7.9-10.2-13-14.1a22,22,0,0,0-2.5-1.7v-.4a19.69,19.69,0,0,1,6.8-1,10.63,10.63,0,0,1,3.1-.1Zm-142.5-98,.8-.8a3.13,3.13,0,0,1,1-.5,3.08,3.08,0,0,1,1.9,0c.3.1.6.3.9.4,0,.1.1.3.1.4a27,27,0,0,1,2.3,7.3c.6,2.7,1.3,5.4,1.7,8.1,1,6.2,1.1,12.4,1.8,18.6.3,3.1.8,6.2,1,9.3s.2,6.2.6,9.3c.7,6.1,2.4,12,3.2,18.1s1.6,12.5,2.8,18.8c1.1,6,2.5,12,3.6,18,.6,3.4.9,6.9,2,10.2a8.62,8.62,0,0,0,2.5,4.2,6,6,0,0,0,4.7.8c3.9-.6,7.5-3.1,10.6-5.3,4-2.9,8-5.9,12-8.9,9-6.8,17.7-14.1,24.7-23,7.4-9.4,13.9-19.5,20.6-29.4,3.3-4.9,6.1-10,9-15.2s6.4-9.4,9.3-14.4c1.9-3.2,2.9-6.6,4.1-10.1a42.48,42.48,0,0,1,2.1-4.9,5.27,5.27,0,0,1,1.1-1.5c.3-.2.5-.4.8-.3,1.1.2,1.9,2.3,2.2,3.3a35,35,0,0,1,1.4,4.6,37.54,37.54,0,0,1,.2,15.3,43.55,43.55,0,0,1-6,14.8c-3.3,5.2-6.8,10.2-10.3,15.3s-6.6,10-10.1,14.8a130.84,130.84,0,0,1-11.3,13.2c-4.1,4.2-8.2,8.3-12.4,12.5a156.1,156.1,0,0,1-13.3,12.4c-4.3,3.5-7.6,8.1-11.8,11.7-4.5,3.8-10.3,5.5-15.1,8.8s-9.9,6.2-15.1,8.9c-4.7,2.5-9.3,5.3-14.4,7a26.33,26.33,0,0,1-7.9,1.5,11.89,11.89,0,0,1-5.6-.7,1.76,1.76,0,0,1-1.1-2,9.5,9.5,0,0,1,1.3-3.3,84.31,84.31,0,0,1,5.5-7.8,19,19,0,0,0,3.6-11.3,73,73,0,0,0-1.3-14,151.15,151.15,0,0,1-1.6-17.7c-.5-12.7.2-25.4-.3-38.1-.2-6.1-.4-12.2-.7-18.3-.2-3.1-.5-6.3-.9-9.4a80.14,80.14,0,0,0-1.8-8.5,38.6,38.6,0,0,1-1-7.5,20.7,20.7,0,0,0-1-6.6,2.09,2.09,0,0,0-.4-.6c.2-.7.5-1.3.7-2A19.17,19.17,0,0,1,372.1,117.3ZM474.4,345.1l-.3,1.2c-.4,1.2-1,2.5-1.5,3.7-1.4,3.1-2.9,6.1-4.3,9.2a44.1,44.1,0,0,0-3.2,7.8c-1.4,4.8-2.7,9.7-3.9,14.5-.9,2.2-2.9,4-4.7,5.5a33.34,33.34,0,0,1-7,4.2c-5.4,2.5-11.8,3.2-17.7,3.3a72.58,72.58,0,0,1-19.1-2,86.76,86.76,0,0,1-17.8-6c-2.3-1.1-4.5-2.3-6.8-3.3-1.6-.7-3.7-1.6-5.6-1.4-1-.7-2.1-1.3-3-2-1.6-1.2-3.2-2.8-4.9-4.2-7-6-15.7-9.8-21.6-17-3.4-4.1-6.5-8.6-9.6-13a163.56,163.56,0,0,1-8.8-13.9c-1.3-2.3-2.5-4.6-3.8-6.8s-2.8-4.3-4.2-6.4a53.49,53.49,0,0,1-6.8-13.5c-1.4-4.5-2.6-9.1-3.6-13.7-.8-4-1.4-8.1-2.5-12.1a19.31,19.31,0,0,0-1.5-4c3.9-6.6,7.7-13.2,11.4-19.9,5.4-9.8,10.4-19.7,14.8-29.8a292.14,292.14,0,0,0,11.5-31.7c3.5-11.4,6.7-22.9,9.9-34.3,1-3.7,2.2-7.3,3-11,.6-2.6,1-5.2,1.6-7.7.7-3.4,1.3-6.8,2.2-10.1.1,1,.1,2,.2,2.9a43.07,43.07,0,0,0,1.3,8,71.22,71.22,0,0,1,1.7,9c.3,3.1.6,6.1.7,9.2.7,12.8.8,25.5.8,38.3,0,6.5,0,13.1.3,19.6a159.62,159.62,0,0,0,1.8,16.8c.7,4.7,1.5,9.6.7,14.4a14.56,14.56,0,0,1-2.1,5.7c-.8,1.2-1.7,2.3-2.5,3.4-2.6,3.5-9.3,11.8-2.7,15a13.81,13.81,0,0,0,6,1,28.55,28.55,0,0,0,8.2-1.2c5.1-1.5,9.8-4.1,14.4-6.7,5.3-2.9,10.6-5.6,15.6-8.9a76,76,0,0,1,7.8-4.6,48.26,48.26,0,0,0,7.4-4.1c4.7-3.4,8-8.1,12.3-11.9,2.2-2,4.7-3.9,6.9-6s4.4-4.2,6.5-6.3c8.3-8.4,17-16.5,24.1-25.9,3.7-4.9,7-10.1,10.4-15.1s7.1-10.3,10.4-15.5a64.14,64.14,0,0,0,4.5-8.1c.6,3.6.4,7.4.5,11,.3,6.7-.3,13.4-.3,20.1s0,13.7.2,20.5c.2,6.5.7,12.8.6,19.2v.9c-.1,3.3-.5,6.6-.9,9.9s-.5,6.4-.8,9.7a63,63,0,0,1-1.2,9.6c-.8,3.2-1.6,6.4-2.5,9.6-1.6,6.2-2.9,12.6-5,18.7-1,3-2,5.9-2.9,8.9a93.73,93.73,0,0,0-1.9,9.2c-.7,3.6-1.5,7.1-2.5,10.6s-2.4,6.9-3.7,10.4-2.2,7-3.7,10.3c-.6,1.5-1.3,3.1-1.8,4.6m-194.9,78c-.9-12.4-3.3-24.6-4.7-37a55.25,55.25,0,0,0-1.1-7.1,9.53,9.53,0,0,0-2.5-5,18.9,18.9,0,0,0,1-4.1,246.06,246.06,0,0,1,9.2,25.3,104.36,104.36,0,0,1,3.3,15.5c.4,3.3.7,6.6,1,10a161.9,161.9,0,0,1,.9,24.1,36.6,36.6,0,0,1-1.6,9.9c-.7,2.2-1.9,4-4.1,4.6a10.57,10.57,0,0,1-3.1.2,61.42,61.42,0,0,0,2.3-16.5C281.1,434.2,281,427.5,280.5,420.9Zm-9.6-46.1c.2-.5.5-1,.7-1.5a10.52,10.52,0,0,1,1.8,4.2,45.83,45.83,0,0,1,1,6.3c.6,5.4,1.4,10.8,2.1,16.2.9,6.3,1.9,12.6,2.4,19s.7,12.7.8,19.1a64.27,64.27,0,0,1-2.3,19,29.92,29.92,0,0,1-3.2-.8l-1.8-.6c.4-5,1.1-10,1.1-15.1,0-5.5-.4-11-.8-16.4s-.9-10.8-1.1-16.3c-.1-4.9.1-9.9.1-14.8a50.88,50.88,0,0,0-2.1-15.5c.4-.9.9-1.8,1.3-2.8ZM265,452.3c.6-4,.6-8,.8-12,.2-5,.5-10,.7-15.1.3-9.7-.1-19.5.7-29.1.3-4.2,1.2-8.8-.2-12.9a.82.82,0,0,0-.5-.5,37.91,37.91,0,0,0,2-3.4c2.6,8.8,1.4,18.2,1.6,27.2.2,10.7,1.8,21.3,1.9,32a152.37,152.37,0,0,1-1.1,16.5,34.69,34.69,0,0,1-5.9-2.7Zm-3.6-54.6a72.43,72.43,0,0,1-.6,12.3c-.6,4.4-1.1,8.8-1.6,13.2s-1.3,8.6-2.2,13a50.5,50.5,0,0,0-.6,5.6,16.22,16.22,0,0,1-.8,4.9c-1.2-.8-2.4-1.6-3.6-2.5a13.74,13.74,0,0,1,1.1-3.6,42.73,42.73,0,0,0,1.8-5.4c1-4.6,1.2-9.3,1.8-13.9,1.2-8.7,2.3-17.6,1.6-26.4l3-4.3a56.34,56.34,0,0,0,.1,7.1ZM249,409.4c.5-.8,1-1.6,1.5-2.5a40.5,40.5,0,0,1-1.2,5c-.8,2.8-1,5.8-1.6,8.7-1,5.3-3,10.4-4.3,15.6a20.13,20.13,0,0,1-1.4-2.5.64.64,0,0,0,0-.6c.8-2,1.4-4,2-6s.9-3.8,1.3-5.7a46.44,46.44,0,0,0,1.1-5.1,7,7,0,0,0,.1-2.9C247.3,412.1,248.1,410.7,249,409.4ZM242.7,421c.7-1.5,1.4-3,2.1-4.4l-.1.3c-.3,1.6-.8,3.2-1.1,4.8-.4,1.8-.7,3.6-1.2,5.3-.4,1.3-.8,2.5-1.3,3.8A19.54,19.54,0,0,1,242.7,421Zm1.8,16.7c1.3-6.1,3.8-11.9,4.8-18.1A81.72,81.72,0,0,1,251,411c.5-1.9,1.3-4.1.7-6.1l2.1-3.3a101.17,101.17,0,0,1-2.8,20.5c-1.4,5.8-3.9,11.6-4.4,17.6a13.36,13.36,0,0,1-2.1-2ZM248,441c.3-6.6,3.2-12.9,4.6-19.2a106.32,106.32,0,0,0,2.7-22.4l1.7-2.5c.4,8.4-.7,16.7-1.8,25-.6,4.6-.7,9.3-1.9,13.8-.7,2.5-2,5-2.6,7.5-.6-.5-1.3-.9-1.9-1.4Zm9,6.6c1.1-2.8.9-5.9,1.2-8.8.2-2,.7-4,1.1-6s.8-4.3,1-6.4c.6-4.4,1-8.9,1.6-13.3a89.51,89.51,0,0,0,1.2-12.6c-.1-4.1-.8-8.6.6-12.6a.45.45,0,0,0,0-.5c.7-1,1.4-2.1,2.1-3.2,1,3.5.4,7.4.1,10.9-.4,4.5-.5,9-.5,13.5-.1,9.8-.3,19.6-.8,29.4-.2,4.5-.1,9.2-.8,13.7C261.4,450.3,259.1,449,257,447.6ZM589.4,701.8c6.2.2,12.9.4,18.8,2.8a22,22,0,0,1,12.4,13.1c1.5,5.1.8,10.2-3.3,13.8a38.51,38.51,0,0,1-7.8,4.7c-3.2,1.6-6.6,3.1-9.9,4.5a179.59,179.59,0,0,1-20.3,6.9,318.51,318.51,0,0,1-42.2,8.5c-15.7,2.3-31.3,1.7-47.1,1.6-7.9,0-15.8.5-23.6.2s-15.9-.9-23.9-1.3c-16.2-.8-32.4.8-48.7.4-13-.4-26.6-1.4-38.6-6.9-5.2-2.4-10.2-5.7-13.1-10.8a16.24,16.24,0,0,1-.8-14.7c2.6-5.5,7.7-8.8,13.3-10.8a83.42,83.42,0,0,1,10.9-2.9,45,45,0,0,1,6.4-1.1c1.1-.1,2.2-.2,3.3-.2h1a1.37,1.37,0,0,0,.8.5,95.33,95.33,0,0,0,23.7,12.3c11.4,4,22.9,7.8,34.9,9.5a266.83,266.83,0,0,0,37.9,2.2c6.5,0,13.1.1,19.6-.1,6.3-.2,12.4-1,18.7-1.7a65.27,65.27,0,0,0,8.7-1.3,40.53,40.53,0,0,0,8.3-3.5c2.7-1.4,5.4-2.8,8.1-4.1s5.3-2.3,8-3.6a95.77,95.77,0,0,0,26.6-19.4C577.3,701.6,583.5,701.6,589.4,701.8ZM604,668.4a1.23,1.23,0,0,0,1.5-.7,23.19,23.19,0,0,1,3.5-5.3,37.45,37.45,0,0,0-.1,5.8,42.1,42.1,0,0,1-5,.4Zm9.3-10.6c.1,3.2-.4,6.5-.4,9.7l-2.5.4c-.3-2.4.2-4.8.1-7.2A25.43,25.43,0,0,1,613.3,657.8Zm1.1,9.5c.1-3.6.7-7.1.3-10.7v-.2l2-2c.4-.4.7-.8,1.1-1.2-.9,4.6-2.1,9.2-2.3,13.9Zm2.6-.4c.2-5.3,1.9-10.5,2.7-15.8,1-1.2,2-2.4,2.9-3.6-.2,1-.5,2-.8,3a37.49,37.49,0,0,0-1.3,5.8c-.2,2-.3,4-.3,5.9a12.35,12.35,0,0,0,.4,4.3l-2.8.3Zm5-.5a14.73,14.73,0,0,1-.4-4.7,40.32,40.32,0,0,1,.4-6c.4-2,.9-3.9,1.5-5.9a10.45,10.45,0,0,0,.6-4.3l.9-1.2a42.56,42.56,0,0,0-.7,9.4,36.4,36.4,0,0,0,2.1,12.2h-.2c-1.3.2-2.8.4-4.2.5Zm8-28.2c-.3,1.4-.9,2.7-1.1,4a27.66,27.66,0,0,0-.2,7.6c.2,5.1,1.1,10.2,1.7,15.3a17,17,0,0,1-2.2.4,41.92,41.92,0,0,1-.6-24.3c.6-.8,1.3-1.6,2-2.4Zm1.7,26.6c-.6-5.1-1.4-10.2-1.7-15.3a23.42,23.42,0,0,1,.5-7.9c.5-1.7,1.2-3.5,1-5.2.9-1.2,1.9-2.3,2.8-3.5a145.91,145.91,0,0,0,0,16.2c.2,2.7.8,5.3,1.1,7.9a28.08,28.08,0,0,1,.5,6.5l-1.6.5c-.9.3-1.8.6-2.6.8Zm6.8-37.4a17.45,17.45,0,0,1,.5,6c-.1,2.9-.4,5.7-.5,8.5-.4,6.8,1.1,13.4,2.4,20-1.1.3-2.2.7-3.3,1,.1-4.5-1.2-9.1-1.7-13.6-.6-6.1-.2-12.4,0-18.5.8-1.1,1.6-2.2,2.6-3.4Zm3.9,34.1c-1.4-6.7-2.8-13.3-2.3-20.2.2-2.8.4-5.6.5-8.4a20.75,20.75,0,0,0-.9-7c1-1.3,1.9-2.6,2.9-3.9.1,6.2-.6,12.3.5,18.4a126.33,126.33,0,0,0,5.6,20c-2.3.4-4.4.7-6.3,1.1Zm11.3-17.4c.6,2.7,1.3,5.5,2.1,8.2a34.3,34.3,0,0,0,1.6,4.5l.6,1.2c-1.1.4-2.2.8-3.3,1.1-1.6-3.3-2.3-7-3.5-10.4a55,55,0,0,1-2.7-12.8,93.35,93.35,0,0,1-.5-18.3,26.73,26.73,0,0,1,.8-4.8c1.5-2.3,3-4.6,4.5-7l.2-.3c-.2,8.2-.7,16.4-.7,24.6a58.93,58.93,0,0,0,.9,14Zm-7.4-18.2c.2,7.2.8,14.7,2.9,21.6.7,2.3,1.5,4.5,2.1,6.8a25,25,0,0,0,1.9,5.2l-3,.6H650a136.45,136.45,0,0,1-5.6-19.6c-1.3-6.8-.3-13.7-.6-20.5,1-1.3,1.9-2.7,2.8-4a65.13,65.13,0,0,0-.3,9.9Zm13,31.4a7.14,7.14,0,0,1-.8-1.5c-.5-1.3-1-2.6-1.4-3.9-.8-2.5-1.4-5.1-2-7.7a67.67,67.67,0,0,1-1-13.5q0-7.05.3-14.1c.2-4.5.3-8.9.4-13.4,2.2-3.7,4.3-7.4,6.4-11.1-.5,7.2-3.7,14-3.1,21.3.8,9,.2,18.2,1.5,27.2.7,4.8,2.1,9.5,3.2,14.2l-.6.5a18.72,18.72,0,0,1-2.9,2Zm4.9-3.4c-.9-3.9-1.9-7.7-2.7-11.6a78.4,78.4,0,0,1-1.2-13.7c-.1-4.6-.2-9.2-.5-13.7a31.1,31.1,0,0,1-.1-6.1,47.6,47.6,0,0,1,1.1-6.4c1-4.3,2.2-8.6,2-13a.76.76,0,0,0,.2-.5,89.43,89.43,0,0,1,5.1-8.4c-.7,3.6-2.1,7.1-2.6,10.8a117.16,117.16,0,0,0-1,15.7c0,10.9-1.2,21.8,0,32.6.5,4.4.5,8.9,1.6,13.2a11.78,11.78,0,0,0-1.9,1.1Zm7-54.5c-.1,11.5.1,23.3-.9,35-.3,3.2-.5,6.3-.5,9.5q0,4.05-.3,8.1a6.48,6.48,0,0,0-2,.2,85.08,85.08,0,0,1-1.4-11.3,140.86,140.86,0,0,1-.6-15.9c.1-5.4.4-10.9.5-16.3a137.58,137.58,0,0,1,.8-15.7,55.5,55.5,0,0,1,1.7-8.1,34.33,34.33,0,0,0,1.4-7.1c1-1.4,1.9-2.9,2.8-4.4-.7,8.7-1.5,17.4-1.5,26ZM681,539c-.8,3.2-1.4,6.5-2.4,9.7-1,3-2.2,5.8-3.4,8.7a90.3,90.3,0,0,0-3.1,9.2,29.64,29.64,0,0,1-4.1,8.6c-1.8,2.7-3.7,5.4-5.4,8.2-3.4,5.8-6.3,11.8-9.8,17.4a312.15,312.15,0,0,1-23.1,32.8c-2.4,3-4.9,5.9-7.2,8.9s-4.5,5.8-7,8.6c-4.1,4.5-9.5,8.5-12.2,14.2a.86.86,0,0,0-.6.3c-4.7,3.6-8.5,8.3-12.7,12.4s-8.7,8.3-13,12.5-8.1,8.5-12.4,12.4a95.08,95.08,0,0,1-13.1,9.8,118.91,118.91,0,0,1-14.7,7.4c-5.5,2.5-10.8,6.2-16.7,7.8a49.6,49.6,0,0,1-8.6,1.3c-3.1.3-6.2.8-9.3,1-6.3.6-12.6.7-18.9.7-12.6,0-25.3.1-37.9-1.1a154.32,154.32,0,0,1-35.5-7.8,153.14,153.14,0,0,1-16.4-6.1,83.72,83.72,0,0,1-14.2-8.3l-.3-.2a3.13,3.13,0,0,0-1.1-.9c-8.9-6.6-16.2-14.7-23-23.4-3.6-4.6-7.2-9.1-10.8-13.6s-6.9-9.6-10.3-14.5c-1.7-2.4-3.5-4.7-5.3-7.1s-3-4.8-4.6-7.3-3.4-4.7-5-7.1a29.81,29.81,0,0,1-3.3-6.4,13.52,13.52,0,0,0-3.6-5.5c-.2-.1-.3-.2-.5-.3v-.1c-5.9-9.8-12.9-18.9-18-29.2-2.6-5.2-4.7-10.6-7-16s-4.4-10.7-6.5-16.1a210,210,0,0,1-9.6-32.9c-2.4-12.1-3.1-24.4-3.7-36.6-.4-6.9-.9-13.7-1.2-20.5a82.3,82.3,0,0,1,.2-8.6,34.92,34.92,0,0,0,.1-5.6c1.5.7,2.9,1.4,4.4,2a27.63,27.63,0,0,0,9.3,2.3,9.54,9.54,0,0,0,7.2-2.5c2-2.1,2.8-5.4,3.4-8.2,1.5-8,1-16.4.4-24.5s-1.1-16.2-2.8-24.1c-2.2-10.5-6-20.6-10-30.5-.9-2.1-1.7-4.2-2.6-6.4a1.39,1.39,0,0,0-.7-.8,126,126,0,0,1,5.3-25.1,136.45,136.45,0,0,1,10.6-26c5.2-9.5,11.1-18.7,16.7-28,1.2-2,2.4-4,3.5-5.9a49.7,49.7,0,0,1,1.9,8.5c.8,4.2,1.7,8.2,2.8,12.3,1.3,5,2.6,9.9,5,14.5s5.4,8.6,8.1,13,5.1,9.1,7.9,13.5c2.9,4.6,6,9,9.2,13.4,2.9,4,5.8,8.1,9.5,11.5a106.28,106.28,0,0,0,11,8,59.8,59.8,0,0,1,5.7,4.2c1.7,1.4,3.2,2.9,4.9,4.2,1.3,1,2.6,1.9,4,2.8a1.52,1.52,0,0,0,0,2h0a.76.76,0,0,0,.1.4,9.7,9.7,0,0,1-.1,1.7,27.46,27.46,0,0,1-1.4,4.9c-1.2,3.5-2.8,7-4.3,10.4-4.6,9.9-10.4,19.1-16.4,28.2-1.8,2.7-3.4,5.5-5,8.4a56.75,56.75,0,0,1-4.7,7.9,33,33,0,0,0-4.4,6.6,12.77,12.77,0,0,0-.8,6.4c.6,4.7,2.9,9,5.2,13s5.1,7.7,7.8,11.4c5.4,7.3,9.4,16.2,15.8,22.8-2.5,7.9-1.1,16.7,1,24.7,2.4,9,6,17.6,8.9,26.4s5.4,17.9,8.7,26.6a136.93,136.93,0,0,0,12.3,25.6,77.7,77.7,0,0,0,19,20.6A278.59,278.59,0,0,0,448.5,650c9,5.3,19.1,10.4,29.6,12,10.8,1.6,21.5-1.7,32.2-2.4a44.83,44.83,0,0,0,14-2.9,97.17,97.17,0,0,0,11.6-5.9c8.7-4.9,17.6-9.1,25.9-14.5a188.65,188.65,0,0,0,44.1-40,166.24,166.24,0,0,0,16.5-25,140.72,140.72,0,0,0,11.8-30c2.9-10.7,5-21.6,7.5-32.4,1.3-5.5,2.8-11,3.6-16.6a160.11,160.11,0,0,0,1.4-17c.3-11.8-.3-23.6-.3-35.4,0-12.1.3-24.1-.7-36.2-.8-10.1-3-20.1-4.5-30.2-1.4-9.2-2.8-18.5-6.5-27a32.46,32.46,0,0,0-2.8-5.2c1.8.2,3.5.5,5.3.7a5.64,5.64,0,0,0,1.2.4.67.67,0,0,0,.8-.3c2.4.1,4.9-.2,7.4-.2l.3.6a.71.71,0,0,0,1,.3.67.67,0,0,0,.3-.8,15.52,15.52,0,0,1,2.1.4,1.73,1.73,0,0,0,.1,1c1.8,4,5,7,6.7,11a66,66,0,0,1,3.2,9.8,1.57,1.57,0,0,0-.3,1.7h0l1.5,3c1.2,4.9,2.7,9.8,4.1,14.7s3.1,9.9,4.4,15c2.4,9.7,3,19.7,4.1,29.6a174.43,174.43,0,0,0,6.7,30.3c2.9,9.6,6.1,19.9,4.7,30.1a2.08,2.08,0,0,0,.1,1.1,149.94,149.94,0,0,0-.7,16.4c-.1.2-.1.4-.2.6a1.06,1.06,0,0,0,.2,1.2c0,7-.1,14-1.4,20.9C682.7,532.1,681.8,535.6,681,539Zm7.6-50.9v-.2a4.87,4.87,0,0,1,.4,1.1,13.53,13.53,0,0,0,1.7,3.4c-1,2.1-2.1,4.1-3,6.2a89.14,89.14,0,0,1,.9-10.5Zm15.2-27.5c-4.1-4.2-9.2-7.2-13.9-10.6-3.5-2.5-6.3-6.4-10.4-7.6-.4-1.8-.8-3.7-1.2-5.5,4.9.5,9.3,4.6,13,7.4,4.9,3.7,10.1,7.1,15,10.8l-.6,1.3c-.7,1.4-1.3,2.8-1.9,4.2Zm7.1-15.7c-2.3-5.4-6.8-9.2-12-11.9a61.27,61.27,0,0,0-8-3.3,27.25,27.25,0,0,1-8.4-4.9,49.23,49.23,0,0,1-6.8-7.6c-.2-2.2-.5-4.5-.8-6.7a40,40,0,0,0,12,10.8,61.09,61.09,0,0,0,9.5,3.9,45.3,45.3,0,0,1,9.2,4.3,23.27,23.27,0,0,1,7.9,8.3c-.3,1-.6,2-1,3C712,442.1,711.5,443.5,710.9,444.9Z" transform="translate(-237.98 -112.88)"/><g id="Lag_3" data-name="Lag 3"><path class="cls-1" d="M643.1,357c-.6-.3-1.1-.6-1.7-.9-.5.8-.9,1.6-1.4,2.4l-.6,1c12.8,45,30.6,120.8-3.4,198.2-11.8,26.9-47.3,107.7-122.3,116C446,681.2,373.4,626.6,366.5,578c-2.7-18.8,4-40-10.4-68.1-10.1-19.8-19-20.3-22.1-34.4-6.3-29.3,28.4-43,33.9-77.5a59.54,59.54,0,0,0,.5-14.6c-1-2.3-1.9-4.5-2.9-6.8-16.7-9.6-29.2-23.3-39.9-38.8-5.7-8.2-9.4-18.4-13.1-27.4a69.27,69.27,0,0,1-2.6-7.2,14.27,14.27,0,0,0-6.5,0c-7.5,2.2-11.2,15.2-18.7,41.1-3.3,11.4-4.4,19.5-3.5,28.3a63.74,63.74,0,0,0,4.9,18.2c8.2,20.6,19,65.7,3.5,77.5-2.8,2.1-8.3,4.7-20,2,0,2.9.1,8.8.7,16.2,0,0,5.5,70.4,111.6,215.4,21.6,8.3,101.2,36.2,168.6-.7,33.6-18.3,56.4-48.7,76.6-75.5,23.4-31,37.5-49.7,45.6-78.2,13.2-46.3-.2-95.1-28-189.8Z" transform="translate(-237.98 -112.88)"/><path class="cls-1" d="M472.7,720a239.21,239.21,0,0,1-23.9-1.3,273.21,273.21,0,0,1-67.2-16.6h-.1V702c-54.9-75-82.3-129.6-95.7-162.2-14.5-35.4-16-53.2-16-53.4-.6-7.9-.7-14-.7-16.2v-.3l.3.1c8.8,2,15.4,1.4,19.8-2,15.7-12,4.1-58.1-3.5-77.2a67.87,67.87,0,0,1-4.9-18.3c-.9-8.6.1-16.6,3.4-28.4,7.5-26,11.2-39,18.8-41.3a15.15,15.15,0,0,1,6.7,0h.1v.1c.8,2.4,1.7,4.9,2.6,7.2.5,1.3,1.1,2.6,1.6,4,3.2,8,6.6,16.3,11.5,23.3,12.4,17.9,25.1,30.2,39.8,38.7h.1v.1c.9,2.3,1.9,4.5,2.9,6.8v.1a60.35,60.35,0,0,1-.5,14.7c-2.5,16-11.5,27.7-19.3,38.1-9.6,12.7-17.9,23.6-14.5,39.3,1.6,7.4,4.9,11.1,9,15.7a83.3,83.3,0,0,1,13.1,18.6c10,19.5,9.8,35.8,9.7,50.1a121.78,121.78,0,0,0,.7,18.1c3.4,23.6,22.3,49.3,50.7,68.7,29.9,20.5,65,30.2,96.2,26.8,74.9-8.3,110.4-89.2,122.1-115.8,32.2-73.2,18.7-144.3,3.4-198v-.1l.7-1.1c.5-.8,1-1.6,1.4-2.4l.1-.2.2.1.5.3c.4.2.7.4,1.1.6l1.6.7v.1c28.2,96,41.1,144.1,28,190-8.2,28.5-22.2,47.2-45.5,78l-.2.3c-20.2,26.8-43,57.1-76.7,75.4C527.8,713.7,501.7,720,472.7,720Zm-90.8-18.4c29.5,11.4,104.9,34,168.3-.7,33.6-18.3,56.4-48.6,76.5-75.3l.2-.3c23.2-30.8,37.2-49.5,45.4-77.9,13.1-45.7.1-93.8-28-189.6l-1.4-.6-1.2-.6-.3-.2c-.4.7-.9,1.4-1.3,2.1l-.6.9c6.5,22.6,14.1,52.9,15.8,86.9,2.1,40-4.4,77.4-19.3,111.4-11.7,26.7-47.4,107.8-122.5,116.1-31.4,3.5-66.6-6.3-96.6-26.9-28.5-19.5-47.5-45.3-50.9-69.1a121.78,121.78,0,0,1-.7-18.1c.1-14.3.3-30.5-9.6-49.9a77.17,77.17,0,0,0-13-18.5c-4.2-4.7-7.5-8.4-9.1-15.9-3.4-15.9,5.3-27.5,14.6-39.7,8.2-10.8,16.7-22.1,19.2-37.9a58.73,58.73,0,0,0,.5-14.5c-1-2.2-1.9-4.5-2.8-6.7-14.8-8.5-27.5-20.8-39.9-38.8-4.9-7-8.3-15.4-11.5-23.4-.5-1.4-1.1-2.7-1.6-4-1-2.4-1.8-4.7-2.6-7.1a13.42,13.42,0,0,0-6.3,0c-7.4,2.2-11.1,15.2-18.5,41-3.4,11.8-4.3,19.7-3.4,28.2a62.92,62.92,0,0,0,4.8,18.1c7.7,19.3,19.3,65.7,3.4,77.8-4.4,3.4-11.1,4.1-19.9,2.1,0,2.4.1,8.3.7,15.9,0,.2,1.6,18,16,53.3,13.4,32.5,40.8,87,95.6,161.9Z" transform="translate(-237.98 -112.88)"/></g><path class="cls-2" d="M637.6,462.9c-.8-10.8-.5-21.5-.5-32.3-.1-8.1-.6-16.2-1.5-24.2-1.7-11.1-3.6-22.2-5.3-33.3-1.2-1.6-2.4-2.5-3.5-2.6-4.1-.6-10.8,8.6-12.6,16.9-2.2,10.3,2.9,19.3,4,21.5,11.5,22.1,9.7,98.5-33.3,151.6-27,33.3-62.5,48-84.5,54.7-15.7-1-47.9-5.5-63.9-28.6-12.5-18.1-9.7-39.7-4-78.7,2.2-14.9,4.8-27.5,7.4-38.1-.3-4.1-.4-8.3-.3-12.4a217.61,217.61,0,0,1,2.1-22.7c1-8.1,2.2-16.3,2.7-24.4-11.3-13.6-37.1-14.7-44.6-7.9a75.32,75.32,0,0,1,8.7,19.4,35.55,35.55,0,0,1,4.1,13.8c3.6,7.5,6,16.2,4.6,26.1-1.1,7.6-4.5,14.2-11.3,27.3a152.8,152.8,0,0,1-9.3,15.6c-1.6,8.9-4,17.6-5.8,26.4a154.76,154.76,0,0,0,.6,23.6c1.1,6,2.4,11.9,3.7,17.9l.9,4.4c4.4,7.4,8.9,13.7,12,18.1,10,14,34.1,47.7,71.2,54,59.4,10.1,115-56.4,137.7-98.9,12.2-22.8,19.3-46.9,22.9-69.8A54,54,0,0,1,637.6,462.9Z" transform="translate(-237.98 -112.88)"/><path class="cls-1" d="M362.1,231.5c0-5.9.3-11.8.8-17.8.9-11.9,2.1-23.9,1-35.8-.2-1.8-.4-3.6-.7-5.4v-.1a.9.9,0,0,0-.1-.5c-.1-.8-.3-1.5-.4-2.3-.3-1.4-2.7-1.5-2.9,0-.7,4.5-1.2,9.1-1.5,13.6q-1.05,3-2.4,6c-1.3,2.7-2.7,5.3-3.9,8a44.37,44.37,0,0,0-2.5,8.6,61.53,61.53,0,0,1-2.2,8.7,81.6,81.6,0,0,1-3.6,8c-2.8,5.7-5.1,11.6-7.7,17.4s-5.4,11.9-7.6,18a58.43,58.43,0,0,0-3.4,16.5c-.6,9.6-.1,19.9,3.3,29a26.61,26.61,0,0,0,7,11c2.3,2,5.4,3.9,8.6,3.1,5.6-1.3,6.9-9.2,7.5-13.9,1-6.9,1-14,1.4-21a76.94,76.94,0,0,1,2.6-17.3,85.31,85.31,0,0,1,3.2-8.4,48.72,48.72,0,0,0,2.3-8.3A121.82,121.82,0,0,0,362.1,231.5Z" transform="translate(-237.98 -112.88)"/><path class="cls-2" d="M411.4,372.1c2,.5,4.1,1,6.1,1.4a51.81,51.81,0,0,0,11.7,1.3,27,27,0,0,0,17-7.2,42.56,42.56,0,0,0,15.2-21.7c.4-1.2.7-2.5,1-3.8V342c1.9-4,3.9-7.9,5.6-12a70.93,70.93,0,0,0,4-12.6c.9-4.5,1.5-9,2.6-13.4,1.1-4.2,2.6-8.4,4-12.5s3.1-8.2,4.9-12.3,3.7-8.1,5.7-12.1a56.87,56.87,0,0,0,4.9-11.7c2.1-8.1,2-16.6,1.8-24.9v-3.1c.3-1.4.7-2.7,1.1-4a8.56,8.56,0,0,0,.2-4.2,8.9,8.9,0,0,0-1.2-3.9,12.73,12.73,0,0,0-4-4,7.3,7.3,0,0,0-3-1.6,8.27,8.27,0,0,0-5.1.8,8.75,8.75,0,0,0-2.2,1l-2.1,1.7a10.16,10.16,0,0,0-2.2,3.2c-2.8,3.4-5,7.4-8.4,10.2s-7.1,5.4-10.7,8.1-7.4,5.3-11.1,7.9c-7.5,5.4-15,10.8-22.4,16.3s-14.9,10.7-22.5,15.9a69.88,69.88,0,0,1-11.3,6.4c-4,1.7-8.1,2.9-12.2,4.2s-8.4,2.7-12.6,3.9a1.54,1.54,0,0,0-1,1.5,49.37,49.37,0,0,0-4.4,37.6,55.17,55.17,0,0,0,22.4,31.3c.5.3,1,.6,1.6.9,7.2,6.1,16.6,9.4,25.8,11.3Zm29.7-103.7c.4-5,2.9-9.8,5.9-13.8a56.74,56.74,0,0,1,5.8-6.2,22.34,22.34,0,0,1,7.3-4.9,15.33,15.33,0,0,1,6.7-.6c1.8.1,3.9.5,5.7.1a.86.86,0,0,0,.6-.3c6.9,5.6,11.1,15,8.4,23.8a41.36,41.36,0,0,1-5.9,11.9c-2.5,3.6-5.7,7-9.7,8.8a19.56,19.56,0,0,1-11.9,1.6,15.67,15.67,0,0,1-8.9-6.4,22.49,22.49,0,0,1-3-6,13,13,0,0,0-.8-3.4A24,24,0,0,1,441.1,268.4Z" transform="translate(-237.98 -112.88)"/></g></svg>